<svg version="1.1" id="Capa_1" xmlns="http://www.w3.org/2000/svg" x="0" y="0" viewBox="0 0 512 512" xml:space="preserve"><style>.st1{fill:#0e243f}</style><path d="M355.5 266.3c1.6 0 23.8-3.3 23.8-3.3l15.9-31.8 22.2 10.9 3.8 19.7L448 276l4.6 20.9-31.4 11.3-5.9 25.5-22.2 6.3-15.1-22.6-5.4-11.3-23-5.9-5.4-21.8 11.3-12.1zm-229.3-245l65.9 82.6s-77.6 113.3-79.3 121.7c-1.7 8.4-35.7 88.2-35.7 88.2S10.7 278.7 11.8 253s8.2-80.4 8.2-80.4S86 67 89.9 60.3c3.9-6.6 36.3-39 36.3-39z" fill="#20bcee"/><path class="st1" d="M241.6 483.5c-4.2.1-8 2.9-9.2 6.9-1.3 4.1.2 8.7 3.7 11.2 3.4 2.4 8 2.5 11.4.1 3.9-2.6 5.4-7.8 3.6-12.1-1.6-3.8-5.4-6.2-9.5-6.1z"/><path class="st1" d="M512 285.8c0-62.1-50.5-112.6-112.6-112.6-14.9 0-29.2 2.9-42.3 8.2C309.5 107.2 250 38.3 249.4 37.6c-1.9-2.2-4.7-3.5-7.6-3.5s-5.7 1.3-7.6 3.5c-2.2 2.5-19.5 22.6-42.3 52-29.3-42.2-59.5-77.1-59.8-77.5-1.9-2.2-4.7-3.4-7.6-3.4s-5.7 1.3-7.6 3.4c-.3.3-29.3 33.9-58 74.9C19.9 143 0 185.8 0 214.1 0 237.9 6.7 261 19.5 281 31 299.1 47 313.8 65.8 323.9c0 1.2-.1 2.4-.1 3.5 0 39.2 12.6 76.2 36.4 107.2 23.1 30 55.7 52.1 92 62.3.9.3 1.8.4 2.7.4 4.4 0 8.4-2.9 9.6-7.3 1.5-5.3-1.6-10.8-6.9-12.3-67-18.8-113.8-80.6-113.8-150.2 0-35.4 28.1-94.2 81.2-170.2 30.4-43.5 61.1-81.2 75-97.7 17.2 20.6 60.7 74.1 97.4 131-31.5 20-52.5 55.2-52.5 95.2 0 56.1 41.2 102.7 94.9 111.2-19.5 38.9-55.1 68.6-97.1 80.5-5.3 1.5-8.4 7-6.9 12.3 1.2 4.4 5.3 7.3 9.6 7.3.9 0 1.8-.1 2.7-.4 25.4-7.2 49.3-20.3 69.1-37.9 18.8-16.7 34-37.6 44.1-60.5 60.3-1.9 108.8-51.6 108.8-112.5zM68.8 302.6c-30.4-19-48.8-52-48.8-88.5 0-45.2 69.6-138 104.6-180 11.3 13.6 33.6 41.3 54.6 72.2-42.8 56.7-97 137.1-110.4 196.3zm330.6 75.9c-51.1 0-92.6-41.6-92.6-92.6s41.6-92.6 92.6-92.6 92.6 41.6 92.6 92.6-41.6 92.6-92.6 92.6z"/><path class="st1" d="M433 255.7h-3.5v-3.5c0-16.6-13.5-30.2-30.2-30.2s-30.2 13.5-30.2 30.2v3.5h-3.5c-16.6 0-30.2 13.5-30.2 30.2s13.5 30.2 30.2 30.2h3.5v3.5c0 16.6 13.5 30.2 30.2 30.2s30.2-13.5 30.2-30.2V316h3.5c16.6 0 30.2-13.5 30.2-30.2s-13.5-30.1-30.2-30.1zm0 40.3h-13.5c-5.5 0-10 4.5-10 10v13.5c0 5.6-4.6 10.2-10.2 10.2s-10.2-4.6-10.2-10.2V306c0-5.5-4.5-10-10-10h-13.5c-5.6 0-10.2-4.6-10.2-10.2s4.6-10.2 10.2-10.2h13.5c5.5 0 10-4.5 10-10v-13.5c0-5.6 4.6-10.2 10.2-10.2s10.2 4.6 10.2 10.2v13.5c0 5.5 4.5 10 10 10H433c5.6 0 10.2 4.6 10.2 10.2S438.6 296 433 296z"/></svg>