<svg version="1.1" id="Слой_1" xmlns="http://www.w3.org/2000/svg" x="0" y="0" viewBox="0 0 512 512" xml:space="preserve"><style>.st1{fill:#0e243f}</style><path d="M272 345.6l50.4-2.3 4.8 15.5-31.8 33.5v62l-41.2 1.2 1.2-74.1zm-107.3-.9l38.8 2.3-32.1 43.5 35.5 63.3-46.1 1.7-40.7-61.4V374l22.9-11.7 17.8-19z" fill="#20bcee"/><g id="Outline"><path class="st1" d="M495.6 253.5l-7.6-22.8V208c0-2.1-.8-4.2-2.3-5.7L472 188.7c-.5-15.9-7-31.1-18.3-42.3-3.1-3.1-8.2-3.1-11.3 0l-9.7 9.7c-4.8 4.8-8.7 10.3-11.7 16.3l-2.3 4.6-75.5 15H112c-26.5 0-48-21.5-48-48s21.5-48 48-48h64c13.3 0 24-10.7 24-24s-10.7-24-24-24h-64c-53 0-96 43.1-96 96.1 0 36.5 20.7 69.8 53.5 86-3.6 8.2-5.5 17-5.5 25.9v75.7l-44.4 29.6c-2.2 1.5-3.6 4-3.6 6.7v88c0 4.4 3.6 8 8 8h40c4.4 0 8-3.6 8-8v-58l40-11.4v5.4c0 1.5.4 3 1.2 4.2l40 64c1.5 2.3 4 3.8 6.8 3.8h48c4.4 0 8-3.6 8-8 0-1.5-.4-3-1.2-4.2l-36.9-59.1 33.9-40.7h48.4l-11.6 29c-.4.9-.6 2-.6 3v72c0 4.4 3.6 8 8 8h40c4.4 0 8-3.6 8-8v-61.1l20.9-25.1 60.4 90.6c1.5 2.2 4 3.6 6.7 3.6h48c4.4 0 8-3.6 8-8 0-1.3-.3-2.6-1-3.8L392 350v-44l33.9-25.5 36.5 7.3c2.6.5 5.3-.3 7.2-2.2l24-24c2.2-2.1 2.9-5.3 2-8.1zM55.4 200.6c-31.2-31.2-31.2-81.9 0-113.1C70.4 72.4 90.8 64 112 64h64c4.4 0 8 3.6 8 8s-3.6 8-8 8h-64c-35.3 0-64 28.7-64 64 0 27 17 51.1 42.4 60.2-4.7 3.4-9 7.5-12.6 12.1-8.3-3.9-15.9-9.2-22.4-15.7zm106.5 186.3c-2.2 2.7-2.5 6.4-.6 9.4l32.3 51.8h-29.1L128 389.7v-8.5c14.7-6.4 27.4-16.4 37.1-29.2h25.8l-29 34.9zm128 0c-1.2 1.4-1.9 3.3-1.9 5.1v56h-24v-62.5l13.4-33.5h39l.8 2.1-27.3 32.8zm171.5-115.6l-35.8-7.2c-2.2-.4-4.5.1-6.4 1.4l-40 30c-2 1.5-3.2 3.9-3.2 6.4v50c0 1.3.3 2.6 1 3.8l49.6 92.2h-30.3l-61.1-91.7-23.7-63.1-15 5.6 13.9 37.2H174.9c6-12.5 9.1-26.1 9.1-40h-16c-.1 34.3-22.8 64.4-55.7 73.9l-50.5 14.4c-3.4 1-5.8 4.1-5.8 7.7v56H32v-75.7l44.4-29.6c2.1-1.4 3.4-3.8 3.5-6.3V256c0-26.5 21.5-48 48-48h216c.5 0 1.1-.1 1.6-.2l80-16c2.4-.5 4.5-2.1 5.6-4.3l4-8.1c2.2-4.5 5.2-8.6 8.7-12.1l3.6-3.6c5.5 7.8 8.5 17.2 8.5 26.8v1.4c0 2.1.8 4.2 2.3 5.7l13.7 13.7V232c0 .9.1 1.7.4 2.5l6.4 19.3-17.3 17.5z"/><path class="st1" d="M440 216h16v16h-16z"/></g></svg>