<svg version="1.1" id="Слой_1" xmlns="http://www.w3.org/2000/svg" xmlns:xlink="http://www.w3.org/1999/xlink" x="0" y="0" viewBox="0 0 115 124" xml:space="preserve"><style>.st1,.st2{clip-path:url(#SVGID_2_);fill:#0d243f}.st2{fill:#fff}</style><path fill="#19bbee" d="M35.4 32.76h38.67v9.28h8.21v42.55L35.4 87.87z"/><defs><path id="SVGID_1_" d="M0 0h115v124H0z"/></defs><clipPath id="SVGID_2_"><use xlink:href="#SVGID_1_" overflow="visible"/></clipPath><path class="st1" d="M10.93 84.81c0-2.95 1.77-5.61 4.5-6.73a7.27 7.27 0 017.94 1.58 7.27 7.27 0 011.58 7.94 7.288 7.288 0 01-6.74 4.5c-4.01 0-7.27-3.26-7.28-7.29m17.33 0c0-4.06-2.44-7.72-6.2-9.27-3.75-1.56-8.07-.7-10.94 2.17a10.05 10.05 0 00-2.17 10.94c1.55 3.75 5.21 6.2 9.27 6.2 5.54-.01 10.03-4.5 10.04-10.04"/><path class="st1" d="M18.22 78.02c-.9 0-1.77.18-2.6.52a6.76 6.76 0 00-4.19 6.27c0 3.74 3.05 6.79 6.79 6.79a6.75 6.75 0 006.27-4.19c1.05-2.55.48-5.45-1.47-7.4a6.756 6.756 0 00-4.8-1.99m0 14.59c-4.29 0-7.79-3.5-7.79-7.79 0-3.17 1.89-5.99 4.81-7.2.95-.39 1.95-.59 2.98-.59 2.08 0 4.04.81 5.51 2.28a7.763 7.763 0 011.69 8.49 7.766 7.766 0 01-7.2 4.81m0-17.33c-2.55 0-4.94.99-6.74 2.79a9.505 9.505 0 00-2.07 10.39 9.504 9.504 0 008.81 5.89c5.25 0 9.53-4.28 9.53-9.53 0-3.87-2.31-7.33-5.89-8.81a9.245 9.245 0 00-3.64-.73m0 20.07c-4.28 0-8.1-2.55-9.74-6.5a10.52 10.52 0 012.28-11.49c1.99-1.99 4.64-3.09 7.45-3.09 1.39 0 2.75.27 4.03.8 3.95 1.64 6.51 5.46 6.51 9.73 0 5.82-4.72 10.55-10.53 10.55"/><path class="st2" d="M49.35 60.59c0 4.6 3.73 8.34 8.33 8.34s8.33-3.73 8.33-8.34a8.33 8.33 0 00-16.66 0"/><path class="st1" d="M57.39 52.86c-4.26 0-7.73 3.47-7.73 7.73s3.47 7.73 7.73 7.73 7.73-3.47 7.73-7.73c0-4.27-3.47-7.73-7.73-7.73m0 19.47c-6.48 0-11.74-5.27-11.74-11.74 0-6.47 5.27-11.74 11.74-11.74s11.74 5.26 11.74 11.74c0 6.47-5.27 11.74-11.74 11.74"/><path class="st2" d="M52.93 55.82a4.56 4.56 0 01-4.57 4.56c-2.52 0-4.56-2.04-4.56-4.56 0-2.52 2.04-4.56 4.56-4.56a4.56 4.56 0 014.57 4.56"/><path class="st1" d="M48.37 53.26c-1.41 0-2.56 1.15-2.56 2.56 0 1.41 1.15 2.56 2.56 2.56 1.41 0 2.56-1.15 2.56-2.56 0-1.41-1.15-2.56-2.56-2.56m0 9.13c-3.62 0-6.57-2.95-6.57-6.57s2.95-6.57 6.57-6.57 6.57 2.95 6.57 6.57-2.95 6.57-6.57 6.57"/><path class="st2" d="M82.65 6.57a4.56 4.56 0 01-4.57 4.56c-2.52 0-4.56-2.04-4.56-4.56 0-2.52 2.04-4.56 4.56-4.56 2.52 0 4.57 2.04 4.57 4.56"/><path class="st1" d="M78.08 4.01c-1.41 0-2.56 1.15-2.56 2.56 0 1.41 1.15 2.56 2.56 2.56 1.41 0 2.56-1.15 2.56-2.56 0-1.41-1.15-2.56-2.56-2.56m0 9.13c-3.62 0-6.57-2.95-6.57-6.57S74.46 0 78.08 0s6.57 2.95 6.57 6.57-2.95 6.57-6.57 6.57"/><path class="st1" d="M97.48 99.09H29.51c1.37-1.11 2.64-2.48 3.85-4.15.68-.93 1.52-2.77 1.57-2.86.35-.81.63-1.65.86-2.51h39.4v-9.34h9.34V40.49h-9.34v-9.23H36.44V21.6h61.03v77.49zm-79.26 0c-7.86-.01-14.26-6.41-14.27-14.28 0-7.87 6.4-14.27 14.27-14.27 7.87 0 14.27 6.4 14.27 14.27-.1 7.89-6.38 14.17-14.27 14.28M3.95 19.63c0-7.87 6.4-14.27 14.27-14.27 7.87 0 14.27 6.4 14.27 14.27v53.86c-3.44-4.35-8.64-6.9-14.27-6.9-5.63 0-10.84 2.55-14.27 6.9V19.63zM80.52 44.5v31.72h-9.34v9.34H36.41c.01-.25.03-.5.03-.74V35.28h34.74v9.23h9.34zm34.85-22.8v-4.01h-13.89v-.03H36.33c-1.02-9.39-9.24-16.6-18.82-16.23A18.15 18.15 0 000 19.63v65.19c.01 10.03 8.18 18.21 18.22 18.22h80.22v.11h16.93v-4.01h-13.89v-9.56h13.89v-4.01h-13.89v-9.56h13.89V72h-13.89v-9.56h13.89v-4.01h-13.89v-9.56h13.89v-4.01h-13.89V35.3h13.89v-4.01h-13.89V21.7h13.89z"/><path class="st2" d="M50.18 98.41l28.28-28.28 7.46 14.59-21.14 21.15z"/><path class="st1" d="M53.55 97.88l10.84 5.54 19.08-19.08-5.54-10.84-24.38 24.38zm11.61 10.44l-18.34-9.38 32.17-32.18 9.38 18.35-23.21 23.21z"/><path transform="rotate(-45.001 78.33 97.913)" class="st2" d="M64 94h29v8H64z"/><path class="st1" d="M67.98 105.51l2.76 2.76 17.94-17.95-2.75-2.76-17.95 17.95zm2.75 8.43l-8.43-8.43 23.62-23.62 8.43 8.43-23.62 23.62z"/><path transform="rotate(-44.602 90.912 110.993)" class="st1" d="M89 95h4v32h-4z"/></svg>