<svg version="1.1" id="Outline" xmlns="http://www.w3.org/2000/svg" x="0" y="0" viewBox="0 0 512 512" xml:space="preserve"><style>.st1{fill:#0e243f}</style><path fill="#20bcee" d="M250.7 295.9h169.6l19.6 43.5-7.9 51.5-24 37.8-7.7 11.3-9 16H277.5l-6.2-16-7.8-11.3-21.6-29.6-4.6-49.1v-30.7z"/><circle class="st1" cx="112" cy="456" r="8"/><circle class="st1" cx="128" cy="440" r="8"/><circle class="st1" cx="144" cy="456" r="8"/><path class="st1" d="M211.6 279.5c-2-2.1-4-4.1-6.1-6-.5-.6-.9-1.1-1.5-1.6-1.5-1.5-3.1-2.7-5-3.7-14.6-8.1-36.9.5-53 9.1-21.1 11.3-44.7 29.4-66.5 51.2-21.7 21.7-39.8 45.2-51.1 66.3-8.6 16-17.2 38.2-9.3 52.9.1.1.1.2.2.3 1.3 2.5 3.2 4.7 5.4 6.4 22 24.2 52.6 39 85.3 41.3 3.1.2 6.3.3 9.4.3 41.5-.1 80.3-20.2 104.3-54 5 6.2 10.5 12 16.4 17.3V472c0 13.2 10.8 24 24 24h144c13.2 0 24-10.8 24-24v-12.7c53.2-47.6 63.5-126.9 24.3-186.5 31.4-31.1 31.6-81.8.5-113.1-19-19.2-46.4-27.5-72.8-22.1v-59c9.6-3.4 16-12.5 16-22.6V40c0-13.2-10.8-24-24-24h-80c-13.2 0-24 10.8-24 24v16c0 10.2 6.4 19.2 16 22.6v137.6c-32.3 11.4-59.3 33.8-76.5 63.3zM90.8 339.7c47.5-47.5 88.9-64 100.5-57.6.5.3.9.6 1.3 1 .2.2.4.4.5.6 4.9 6.5-1.1 23.9-7.7 36.7-10.4 20.2-28 43.1-49.3 64.5-47 47-90.6 65-101.2 57.1-.2-.2-.4-.3-.6-.5-.4-.4-.8-.9-1-1.4 0-.1-.1-.1-.1-.2-6-11.9 10.6-53.1 57.6-100.2zm100 114.4C151.3 487 94.5 488.7 53 458.4c27.4-6 64.2-31.9 94.4-62.1s56.1-67.1 62.1-94.4c34.9 47.7 26.6 114.3-18.7 152.2zm86.1-26.4c-14.1-11-24.8-25.7-31-42.5 2.4-17.9 1-36.1-4-53.5.3-.6.6-1.2.7-1.9 2.1-9.1 5.6-17.8 10.3-25.8h166.3c23.9 41.5 13.6 94.2-24.1 123.7-1.9 1.5-3.1 3.8-3.1 6.3v6c0 4.4-3.6 8-8 8h-96c-4.4 0-8-3.6-8-8v-6c0-2.5-1.1-4.8-3.1-6.3zm141.9 21.9c-1.8 1.5-2.8 3.8-2.8 6.1V472c0 4.4-3.6 8-8 8H264c-4.4 0-8-3.6-8-8v-16.3c0-2.3-1-4.6-2.8-6.1-7.7-6.6-14.7-14-20.6-22.2 2.9-5.6 5.5-11.5 7.5-17.5 6.4 10.6 14.5 20 23.9 28v2.2c0 13.2 10.8 24 24 24h96c13.2 0 24-10.8 24-24v-2.2c43.1-36.2 52.7-98.7 22.4-146.1-1.5-2.3-4-3.7-6.7-3.7H248.3c-2.7 0-5.3 1.4-6.7 3.7-3.5 5.4-6.5 11.2-9 17.1-2.9-5.6-6.3-11.1-10.1-16.2 15.8-30.3 43.1-52.9 75.8-63 3.4-1 5.7-4.1 5.6-7.6V80h64v142c0 3.5 2.3 6.6 5.6 7.6 25.8 8 48.5 24 64.8 45.6 40.7 54.2 32.1 130.6-19.5 174.4zm4.7-211.9c-12-9.2-25.3-16.5-39.5-21.5v-27.9c4.9-2.8 10.4-4.3 16-4.3 17.7 0 32 14.3 32 32 0 8.1-3 15.8-8.5 21.7zM400 152c35.3 0 64 28.6 64 64 0 16.3-6.2 32-17.4 43.9-3.4-4.1-7.1-8-10.9-11.7 8-8.8 12.4-20.3 12.3-32.1 0-26.5-21.5-48-48.1-48-5.4 0-10.8.9-15.9 2.7V154c5.2-1.3 10.6-2 16-2zM288 40c0-4.4 3.6-8 8-8h80c4.4 0 8 3.6 8 8v16c0 4.4-3.6 8-8 8h-80c-4.4 0-8-3.6-8-8V40z"/></svg>