<svg version="1.1" id="Capa_1" xmlns="http://www.w3.org/2000/svg" x="0" y="0" viewBox="0 0 512 512" xml:space="preserve"><style>.st1{fill:#0e243f}</style><path d="M121 386h269v109H121zM60 77h384v65H60z" fill="#20bcee"/><path class="st1" d="M452.3 68.3H59.7c-4.7 0-8.5 3.8-8.5 8.5v68.3c0 4.7 3.8 8.5 8.5 8.5h392.5c4.7 0 8.5-3.8 8.5-8.5V76.8c.1-4.7-3.7-8.5-8.4-8.5zm-8.6 68.2H68.3V85.3h375.5l-.1 51.2z"/><path class="st1" d="M417.6 73.8l-21.9-58.5C392.2 6.2 383.3 0 373.5 0H138.4c-9.8 0-18.7 6.2-22.1 15.3L94.4 73.8c-1 2.6-.6 5.6 1 7.9 1.6 2.3 4.2 3.7 7 3.7h307.2c2.8 0 5.4-1.4 7-3.7 1.6-2.3 2-5.3 1-7.9zm-302.9-5.5l17.6-47c1-2.5 3.4-4.3 6.1-4.3h235.1c2.7 0 5.2 1.7 6.1 4.3l17.6 47H114.7zm321.5 168.4c-3.7-4-8.7-6.3-13.9-6.3H89.7c-5.2 0-10.2 2.2-13.9 6.3-4.4 4.7-6.6 11.4-6.1 18.2L79 372c.9 11.7 9.5 20.5 20 20.5h314.1c10.5 0 19-8.8 20-20.5l9.2-117.1c.5-6.8-1.8-13.5-6.1-18.2zm-11 16.9L416 370.7c-.2 2.9-1.9 4.8-3 4.8H98.9c-1.1 0-2.7-1.9-3-4.8l-9.2-117.1c-.2-2.5.7-4.4 1.6-5.3.3-.3.8-.8 1.4-.8h332.5c.6 0 1.1.5 1.4.8.9.9 1.8 2.8 1.6 5.3z"/><path class="st1" d="M424.4 139.3c-1.6-1.8-3.9-2.8-6.3-2.8H93.9c-2.4 0-4.7 1-6.3 2.8-1.6 1.8-2.4 4.2-2.2 6.6l8.9 93.9c.4 4.4 4.1 7.7 8.5 7.7h306.4c4.4 0 8.1-3.3 8.5-7.7l8.9-93.9c.3-2.4-.5-4.8-2.2-6.6zm-23 91.1H110.6l-7.3-76.8h305.5l-7.4 76.8zm-113.6 45c-8.3-8.3-19.9-12.1-32.7-10.6-12.1 1.3-23.9 7.2-33.3 16.6-9.4 9.4-15.3 21.2-16.6 33.3-1.4 12.8 2.3 24.4 10.6 32.7 7.1 7.1 16.8 10.9 27.5 10.9 1.7 0 3.5-.1 5.2-.3 12.1-1.3 23.9-7.2 33.3-16.6 9.4-9.4 15.3-21.2 16.6-33.3 1.4-12.8-2.4-24.4-10.6-32.7zm-6.4 30.9c-.9 8.3-5.1 16.5-11.7 23.1-6.6 6.6-14.9 10.8-23.1 11.7-7.6.8-14.2-1.2-18.8-5.7-4.5-4.5-6.6-11.2-5.7-18.8.9-8.3 5.1-16.5 11.7-23.1 6.6-6.6 14.9-10.8 23.1-11.7 1.1-.1 2.2-.2 3.3-.2 6.2 0 11.6 2 15.5 5.9 4.5 4.6 6.6 11.2 5.7 18.8z"/><path class="st1" d="M262 301.2c-3.3-3.3-8.7-3.3-12.1 0l-34.3 34.3c-3.3 3.3-3.3 8.7 0 12.1 1.7 1.7 3.8 2.5 6 2.5s4.4-.8 6-2.5l34.3-34.3c3.5-3.4 3.5-8.8.1-12.1zm139.7 77.1c-1.6-1.8-3.9-2.8-6.3-2.8H116.6c-2.4 0-4.7 1-6.3 2.8-1.6 1.8-2.4 4.2-2.2 6.6l10.1 105.8c1.2 12.2 11.3 21.4 23.5 21.4h228.6c12.2 0 22.3-9.2 23.5-21.4l10.1-105.8c.2-2.5-.6-4.9-2.2-6.6zM376.8 489c-.3 3.4-3.1 5.9-6.5 5.9H141.7c-3.4 0-6.2-2.5-6.5-5.9l-9.2-96.5h260l-9.2 96.5z"/></svg>