<svg version="1.1" id="Layer_1" xmlns="http://www.w3.org/2000/svg" x="0" y="0" viewBox="0 0 512 512" xml:space="preserve"><style>.st1{fill:#0e243f}</style><path fill="#20bcee" d="M311.5 113.8l38.6-63.2 40.7 72.8-4.2 35.7-29 14.8-29.9-5.7-21.5-32.5z"/><path class="st1" d="M139.5 336.8c3.3 0 6-2.7 6-6V325c0-3.3-2.7-6-6-6s-6 2.7-6 6v5.8c0 3.3 2.6 6 6 6zm0 107.4c3.3 0 6-2.7 6-6v-88.5c0-3.3-2.7-6-6-6s-6 2.7-6 6v88.5c0 3.4 2.6 6 6 6zM355.3 44.5c-1.7-2.9-5.4-3.8-8.2-2.1-.9.5-1.6 1.3-2.1 2.1l-36.7 62.6c-13.5 23.1-5.7 52.8 17.4 66.4 19 11.1 43.2 8 58.8-7.5 15.6-15.6 18.7-39.8 7.6-58.8l-36.8-62.7zm20.6 113c-14.2 14.3-37.3 14.3-51.6.1-11.8-11.8-14.1-30-5.7-44.3l31.5-53.8 31.5 53.8c8.4 14.2 6.1 32.4-5.7 44.2z"/><path class="st1" d="M374.5 125.1c-3.2-.7-6.4 1.4-7.1 4.7-.7 3.4-2.4 6.5-4.8 9-1.9 1.9-4.2 3.3-6.7 4.2-3.1 1.1-4.8 4.5-3.7 7.6 1.1 3.1 4.5 4.8 7.6 3.7 9.9-3.4 17.3-11.9 19.4-22.2.7-3.1-1.4-6.3-4.7-7z"/><path class="st1" d="M350.1 10.9c-32.3 0-62.7 15.5-81.5 41.8H84.7c-12.9 0-23.3 10.4-23.3 23.3s10.4 23.3 23.3 23.3h6.2v154.4h-6.2c-12.9 0-23.3 10.4-23.3 23.3s10.4 23.3 23.3 23.3h6.2v154.4h-6.2c-12.9 0-23.3 10.4-23.3 23.3 0 12.8 10.4 23.3 23.3 23.3h282.1c12.9 0 23.3-10.4 23.3-23.3 0-12.8-10.4-23.3-23.3-23.3h-6.2V300.2h6.2c12.9 0 23.3-10.4 23.3-23.3s-10.4-23.3-23.3-23.3h-6.2v-42.3c55.2-5.8 95.2-55.3 89.4-110.4-5.3-51.2-48.5-90-99.9-90zM84.7 87.2c-6.2 0-11.3-5-11.3-11.3 0-6.2 5-11.3 11.3-11.3h176.5c-3.8 7.1-6.6 14.7-8.6 22.6H84.7zm282.1 379.4c6.2 0 11.3 5 11.3 11.3s-5 11.3-11.3 11.3H84.7c-6.2 0-11.3-5.1-11.3-11.3 0-3 1.2-5.9 3.3-8 2.1-2.1 5-3.3 8-3.3h25.7c3.3 0 6-2.7 6-6s-2.7-6-6-6h-7.5V300.2h245.8v154.4h-214c-3.3 0-6 2.7-6 6s2.7 6 6 6h232.1zm0-201c6.2 0 11.3 5 11.3 11.3 0 6.2-5 11.3-11.3 11.3H84.7c-6.2 0-11.3-5.1-11.3-11.3 0-6.2 5.1-11.3 11.3-11.3h199c3.3 0 6-2.7 6-6s-2.7-6-6-6H102.8V99.2h147.6c-6.7 55.1 32.6 105.2 87.7 111.9 3.5.4 7 .7 10.6.7v41.8h-37c-3.3 0-6 2.7-6 6s2.7 6 6 6h55.1zm-12.5-65.9c-1.5.1-2.9.1-4.2.1-48.9 0-88.5-39.7-88.5-88.6 0-5.7.5-11.3 1.6-16.9 2.2-11.5 6.7-22.4 13.2-32.1 27.1-40.7 82-51.7 122.7-24.6s51.7 82 24.6 122.7c-15.5 23.5-41.3 38.1-69.4 39.4z"/></svg>