<svg version="1.1" id="Слой_1" xmlns="http://www.w3.org/2000/svg" xmlns:xlink="http://www.w3.org/1999/xlink" x="0" y="0" viewBox="0 0 150 104" xml:space="preserve"><style>.st0{clip-path:url(#SVGID_2_);fill:#0d243f}</style><defs><path id="SVGID_1_" d="M0 0h150v104H0z"/></defs><clipPath id="SVGID_2_"><use xlink:href="#SVGID_1_" overflow="visible"/></clipPath><path class="st0" d="M126.08 99.92h-.67l-4.79-11.17h3.86l1.6 11.17zm-4.05-32.83c0 1.28-1.04 2.32-2.32 2.32H73.95c-1.28 0-2.32-1.04-2.32-2.32v-6.54c0-1.28 1.04-2.32 2.32-2.32h34.87c1.13 0 2.04-.91 2.04-2.04s-.91-2.04-2.04-2.04H73.95c-1.28 0-2.32-1.04-2.32-2.32V27.87c0-2.48 2.02-4.5 4.5-4.5h45.76c2.48 0 4.5 2.02 4.5 4.5v14.49c-.29.56-.5 1.16-.62 1.8l-2.07 11.4a6.386 6.386 0 00-3.99-1.4h-2.18c-1.13 0-2.04.91-2.04 2.04s.91 2.04 2.04 2.04h2.18c1.28 0 2.32 1.04 2.32 2.32v6.53zm-56.79 2.32H19.47c-1.28 0-2.32-1.04-2.32-2.32v-6.54c0-1.28 1.04-2.32 2.32-2.32h45.76c1.28 0 2.32 1.04 2.32 2.32v6.54a2.32 2.32 0 01-2.31 2.32M17.29 23.37h45.76c2.48 0 4.5 2.02 4.5 4.5v23.97c0 1.28-1.04 2.32-2.32 2.32H19.47c-1.51 0-2.89.53-3.99 1.4l-2.07-11.4c-.12-.64-.33-1.24-.62-1.8V27.87c0-2.48 2.02-4.5 4.5-4.5m-3.52 76.55h-.66l1.6-11.17h3.86l-4.8 11.17zm124.32-59.64c-.8-.88-1.94-1.38-3.12-1.38h-2.9c-.55 0-1.08.07-1.6.2V27.87c0-4.73-3.85-8.58-8.58-8.58H76.13a8.58 8.58 0 00-6.54 3.03 8.564 8.564 0 00-6.54-3.03H17.29c-4.73 0-8.58 3.85-8.58 8.58v11.24c-.51-.13-1.05-.2-1.6-.2h-2.9c-1.19 0-2.33.5-3.12 1.38-.8.88-1.19 2.06-1.08 3.24l3.76 39.43c.32 3.3 3.05 5.79 6.37 5.79h.44l-1.85 12.93c-.09.59.09 1.18.48 1.62s.95.7 1.54.7h4.36c.81 0 1.55-.49 1.87-1.24L23 88.74h3.01c1.13 0 2.04-.91 2.04-2.04s-.91-2.04-2.04-2.04H10.14c-1.2 0-2.19-.9-2.31-2.1L4.08 43.13c0-.01-.01-.06.04-.11.04-.05.09-.05.11-.05h2.9c1.12 0 2.08.8 2.28 1.91l3.68 20.21v2c0 3.53 2.87 6.4 6.4 6.4h45.76c1.68 0 3.21-.66 4.36-1.72a6.357 6.357 0 004.36 1.72h45.76c3.53 0 6.4-2.87 6.4-6.4v-2l3.67-20.21c.2-1.11 1.16-1.91 2.28-1.91h2.9c.02 0 .06 0 .1.05.04.05.04.09.04.11l-3.76 39.43c-.11 1.2-1.11 2.1-2.31 2.1H34.73c-1.13 0-2.04.91-2.04 2.04s.92 2.04 2.04 2.04h81.46l6.01 14.02c.32.75 1.06 1.24 1.87 1.24h4.36c.59 0 1.15-.26 1.54-.7.38-.45.56-1.04.48-1.62l-1.85-12.93h.44c3.32 0 6.05-2.49 6.37-5.79l3.76-39.43c.11-1.19-.28-2.37-1.08-3.25"/><path class="st0" d="M30.39 38.62c1.12 0 2.04-.91 2.04-2.04s-.91-2.04-2.04-2.04h-.02c-1.13 0-2.03.91-2.03 2.04s.93 2.04 2.05 2.04m19.61 0c1.13 0 2.04-.91 2.04-2.04s-.91-2.04-2.04-2.04h-.02c-1.13 0-2.03.91-2.03 2.04s.93 2.04 2.05 2.04m42.55-2.2a1.83 1.83 0 11-.002 3.662 1.83 1.83 0 01.002-3.662m0 7.32c3.02 0 5.48-2.46 5.48-5.48 0-3.02-2.46-5.49-5.48-5.49-3.02 0-5.49 2.46-5.49 5.49 0 3.02 2.46 5.48 5.49 5.48M90.87 3.66a1.83 1.83 0 11-1.83 1.83c.01-1.01.83-1.83 1.83-1.83m0 7.31c3.03 0 5.49-2.46 5.49-5.48C96.36 2.46 93.9 0 90.87 0c-3.02 0-5.49 2.46-5.49 5.49.01 3.02 2.47 5.48 5.49 5.48M77.74 47.39a1.842 1.842 0 001.83-1.83c0-.48-.19-.95-.54-1.29-.34-.34-.81-.54-1.29-.54s-.95.19-1.29.54c-.34.34-.54.81-.54 1.29s.19.95.54 1.29c.34.35.81.54 1.29.54m29.02 1.83c.48 0 .95-.19 1.29-.54.34-.34.54-.81.54-1.29s-.19-.95-.54-1.29c-.34-.34-.81-.54-1.29-.54s-.95.19-1.29.54c-.34.34-.54.81-.54 1.29s.19.95.54 1.29c.34.35.81.54 1.29.54"/><path clip-path="url(#SVGID_2_)" fill="#fff" d="M136.56 44.83l-31.63-31.97-11.29 9.43 32.51 33.05z"/><path d="M104.93 13.75s5.97-12.44 13.2-5.2C125.37 15.78 139 29.41 139 29.41s6.49 6.09 1.1 12.74c-5.39 6.65-3.93 2.7-3.93 2.7l-31.24-31.1z" clip-path="url(#SVGID_2_)" fill="#19bbee"/><path class="st0" d="M137 42.22l-29.7-29.7 1.82-1.82a5.468 5.468 0 017.74 0l21.96 21.96c2.13 2.13 2.13 5.6 0 7.74L137 42.22zm-10.11 10.11l-5.06-5.06 6.95-6.95 5.06 5.06-6.95 6.95zm-8.21-8.22l-5.05-5.05 6.95-6.95 5.06 5.06-6.96 6.94zm-8.22-8.21l-5.06-5.06 6.95-6.95 5.06 5.05-6.95 6.96zm-8.21-8.22l-5.06-5.06 6.95-6.95 5.05 5.06-6.94 6.95zm39.73 1.82l-19.09-19.09.19-.2a5.981 5.981 0 018.45 0l14.24 14.24c.87.87 2.29.87 3.16 0 .87-.87.87-2.29 0-3.16L134.7 7.05c-1.23-1.23-2.65-2.23-4.24-2.57-7.35-1.59-10.86 2.66-10.86 2.66-3.9-3.47-9.9-3.33-13.63.4l-15.1 15.09 34.44 34.44c.87.87 2.29.87 3.16 0l13.51-13.51c3.88-3.88 3.88-10.19 0-14.06"/></svg>