<svg version="1.1" id="Capa_1" xmlns="http://www.w3.org/2000/svg" x="0" y="0" viewBox="0 0 512 512" xml:space="preserve"><style>.st1{fill:#0e243f}</style><path d="M389.4 94.7l3.3 364.8-24.2 43.7 44.3-6.2 30.7-37.5 30-17.4 8.8-31V309.8l-45.2-50.2-2.5-135.6-20.9-21.8zM139 493.2L120.6 463V65.4l-42.7 48.5-3.3 73.7-36.1 42.7L31.9 422l21.6 30 21.1 7.5L94.7 497l44.3 10.4z" fill="#20bcee"/><path class="st1" d="M472.4 287.3l-28.9-34V142.5c0-26.4-19.6-48.3-45-52v-38C398.5 23.6 374.9 0 346 0H166c-28.9 0-52.5 23.6-52.5 52.5v6.9L88.3 84.6c-12.7 12.7-19.8 29.7-19.8 47.7v45.9l-28.9 34C29.2 224.5 23.5 240 23.5 256v158.5c0 26.6 19.8 48.6 45.5 52 3.4 25.6 25.4 45.5 52 45.5h270c26.6 0 48.6-19.8 52-45.5 25.6-3.4 45.5-25.4 45.5-52V331c0-16-5.7-31.5-16.1-43.7zM38.5 414.5V256c0-12.4 4.4-24.5 12.5-34l17.5-20.6v249.8c-17.1-3.4-30-18.6-30-36.7zM121 497c-20.7 0-37.5-16.8-37.5-37.5V132.4c0-14 5.5-27.2 15.4-37.1l14.6-14.6v378.9c0 14.7 6.1 28 15.8 37.5H121zm45 0c-18.3 0-33.6-13.2-36.9-30.6 25.1-3.9 44.4-25.7 44.4-51.9 0-4.1-3.4-7.5-7.5-7.5s-7.5 3.4-7.5 7.5c0 18.1-12.9 33.3-30 36.7V52.5c0-18.1 12.9-33.3 30-36.7v368.7c0 4.1 3.4 7.5 7.5 7.5s7.5-3.4 7.5-7.5V15h120v163.2l-28.9 34a67.37 67.37 0 00-16.1 43.7v203.5c0 14.7 6.1 28 15.8 37.5H166zm135 0c-20.7 0-37.5-16.8-37.5-37.5V256c0-12.4 4.4-24.5 12.5-34l30.7-36.1c1.2-1.4 1.8-3.1 1.8-4.9V15H346c20.7 0 37.5 16.8 37.5 37.5v407c0 20.7-16.8 37.5-37.5 37.5h-45zm127.5-37.5c0 20.7-16.8 37.5-37.5 37.5h-8.3c9.7-9.5 15.8-22.8 15.8-37.5V105.8c17.1 3.5 30 18.6 30 36.7v317zm45-45c0 18.1-12.9 33.3-30 36.7V276.4L461 297c8.1 9.5 12.5 21.5 12.5 34v83.5z"/><circle class="st1" cx="331" cy="460" r="8"/><circle class="st1" cx="361" cy="430" r="8"/><circle class="st1" cx="196" cy="53" r="8"/></svg>