<svg version="1.1" id="Layer_1" xmlns="http://www.w3.org/2000/svg" x="0" y="0" viewBox="0 0 512 512" xml:space="preserve"><style>.st1{fill:#0e243f}</style><path fill="#20bcee" d="M102.2 9.3l289.4 3.3v173.3L92.8 243.7V16z"/><path class="st1" d="M447.4 336.1l-36-152.8c-1-4.4-4.8-7.4-9.1-7.7V24.1c0-13.3-10.8-24.1-24.1-24.1H106.3C93 0 82.2 10.8 82.2 24.1v207.1l-1.1.2c-4.8.8-8.3 5-8.3 9.9v212.6l-7.1 24c-2.6 8.6-1.3 17.3 3.5 23.7 3.5 4.7 10.6 10.4 23.9 10.4h298.2c13.4 0 20.4-5.6 23.9-10.4 4.8-6.4 6-15 3.5-23.7l-7.1-24V331.4c7.2 3.5 13.5 8 18.6 13.7 1.9 2.2 4.7 3.3 7.4 3.3 1.6 0 3.2-.4 4.6-1.1 4.1-2.1 6.2-6.7 5.2-11.2zM102.2 133.4h80v80.5l-80 14v-94.5zm280 45.5l-80 14v-59.5h80v45.5zm-100-65.5h-80V20h80v93.4zm-80 20h80v63l-80 14v-77zm180-109.3v89.2h-80V20h75.9c2.3 0 4.1 1.9 4.1 4.1zM106.3 20h75.9v93.4h-80V24.1c0-2.2 1.8-4.1 4.1-4.1zm292.9 469.7c-1.1 1.5-4 2.3-7.9 2.3H93.1c-3.9 0-6.8-.9-7.9-2.3-.9-1.3-1.1-3.6-.3-6l5.4-18.2h303.9l5.4 18.2c.7 2.4.6 4.7-.4 6zm-7.6-44.3H92.8V333.9c9 2.9 19.1 4.7 30 5.6v65.9c0 5.5 4.5 10 10 10h64.5c5.5 0 10-4.5 10-10s-4.5-10-10-10h-54.5v-55.1c30.1-.1 64.7-4.8 100.4-9.7 33.7-4.6 68-9.4 98.5-10v74.9h-54.5c-5.5 0-10 4.5-10 10s4.5 10 10 10h64.5c5.5 0 10-4.5 10-10v-84.7c10.7.5 20.8 1.7 30 3.8l-.1 120.8zM405 307.5c-.2-.1-.4-.1-.6-.2-15.6-4.7-33.4-6.6-52.5-6.8h-.3c-34.4-.3-73 5-111.1 10.2-56.8 7.8-115.4 15.9-147.6 1.9v-62.8L394 197.2h.1l27.6 116.9c-5.3-2.7-10.9-4.8-16.7-6.6z"/><path class="st1" d="M242.2 395.4c-5.5 0-10 4.5-10 10s4.5 10 10 10 10-4.5 10-10-4.5-10-10-10z"/></svg>