<svg version="1.1" id="Outline" xmlns="http://www.w3.org/2000/svg" x="0" y="0" viewBox="0 0 512 512" xml:space="preserve"><style>.st1{fill:#0e243f}</style><path fill="#20bcee" d="M253.1 330.5h203.5l-15 45.5-41.6 48-49.9 25.9-54.1 6.7-42.9-8.6-16-16 9.7-58z"/><path class="st1" d="M488 320h-40v-48c0-37.8-15.7-73.8-43.4-99.5 10.8-28.9 40.2-54.1 40.6-54.4 3.4-2.9 3.8-7.9.9-11.3-1.5-1.8-3.7-2.8-6.1-2.8-23.1 0-43.2 4.5-60.1 13.5 3.2-5.3 6.7-10.5 10.6-15.3 6.8-8.7 14.4-16.7 22.7-24.1 3.4-2.9 3.8-7.9.9-11.3-1.5-1.8-3.8-2.8-6.1-2.8-21.6 0-40.7 4-56.9 12-2.2-16.7-9.8-46.3-35.5-59.1-2.3-1.1-4.9-1.1-7.2 0-25.6 12.8-33.2 42.3-35.5 59.1-16.1-8-35.2-12-56.9-12-4.4 0-8 3.6-8 8 0 2.3 1 4.6 2.8 6.1 8.3 7.3 15.9 15.4 22.7 24.1 3.8 4.9 7.4 10 10.5 15.3-16.8-9-36.9-13.5-60.1-13.5-4.4 0-8 3.6-8 8 0 2.3 1 4.6 2.8 6.1.3.3 29.8 25.5 40.6 54.4-27.6 25.7-43.3 61.7-43.3 99.5v.9c-8.8 1.7-20.5 5.5-26.7 10.2-.9.7-1.8 1.3-2.8 1.8 2.1-19.3 5.8-38.9 12.2-48.5 2.5-3.6 1.6-8.6-2.1-11.1-3.6-2.5-8.6-1.6-11.1 2.1 0 .1-.1.1-.1.2-7.3 10.9-12.3 30.8-15.2 59.2-2.7-.8-5.2-2-7.4-3.7-8.4-6.3-26.8-11.1-34.7-11.1-20.9 0-39.8 8.5-53.1 24-15.2 17.6-21.7 42.7-17.8 68.8l5 33.6c3.1 21.3 10.1 41.8 20.5 60.7 13.1 23.4 35.7 37 59.7 37 5.9 0 11.8-.8 17.4-2.4.2-.1.4-.1.5-.2l13.4-4.8c1.5-.5 3.1-.5 4.6 0l13.4 4.8c.2.1.4.1.5.2 5.7 1.6 11.6 2.4 17.5 2.4 17.5 0 34.4-7.3 47.3-20.3 27.1 13.2 56.9 20.2 87.1 20.3 49.8 0 97.9-18.9 135.5-53.1 35.8-32.8 56.4-74.7 56.4-115 0-4.4-3.6-8-8-8zm-209.8-40.1l33.9-32.9 33.9 33-33.9 32.8-33.9-32.9zm18.4 40.1h-45.7c-1.2-3.3-2.5-6.5-4.1-9.5l20-19.4 29.8 28.9zm60.9-28.9l29.8 28.9h-59.6l29.8-28.9zm-33.9-55.3l33.9-32.9 34 33-33.9 32.8-34-32.9zm5.6-82.6c14.7 2.1 28.9 7 41.8 14.3l-13.5 13.1-28.3-27.4zm16.8 38.6l-33.9 32.9-33.8-32.8 33.9-32.9 33.8 32.8zm-79.2-11.1l-13.6-13.2c13-7.3 27.2-12.2 42-14.3l-28.4 27.5zm0 22.3l33.8 32.9-33.9 32.9-33.8-32.8 33.9-33zm-11.6 76.9l-17.5 17c-.2-.3-.5-.6-.7-.9-10.8-12.6-25.8-20.8-42.2-23.2l26.5-25.7 33.9 32.8zm-5.3 118.5l5-33.6c1.5-9.6 1.5-19.3 0-28.8h191.7c-4.6 26.4-20.2 52.9-43.8 73.7-27.9 24.7-62.9 38.3-98.8 38.3-21.8-.1-43.3-5-63-14.5 4.2-11.4 7.1-23.1 8.9-35.1zM418.5 320l13.5-13.1V320h-13.5zm13.5-35.4l-29.1 28.2L369 280l33.9-32.8 29.1 28.3v9.1zm-1.8-33.3L414.4 236l9-8.7c3.1 7.7 5.4 15.8 6.8 24zM416 212.1l-13.1 12.7-34-33 15.7-15.3c12.7 9.7 23.4 21.8 31.4 35.6zm3-90.6c-9.2 10.1-20.3 24.4-27.3 40.3-7.2-5.2-14.8-9.7-22.8-13.4.1-1.2.3-2.5.4-3.7 12.9-12.3 29.5-20.1 49.7-23.2zm-32-40c-13 14.3-29.8 36.9-33.5 60.9-9.4-3-19.1-5-29-5.9-.9-2.9-2.1-6.2-3.7-9.8 9.9-18.7 29-39.4 66.2-45.2zm-75-48.3c19.8 12.9 23.3 42.5 23.9 51.9-9.4 6.9-17.5 15.5-23.9 25.2-3.7-5.6-7.9-10.8-12.6-15.6-3.5-3.5-7.2-6.7-11.2-9.7.5-9.3 4-38.9 23.8-51.8zm-74.9 48.4c44.3 6.9 62.8 35.2 70.3 54.5-12.5.4-24.9 2.6-36.9 6.4l-.9-4.8.3-.3c-.1-.2-.3-.3-.4-.5-5.3-21.9-20.5-42.1-32.4-55.3zM205 121.5c20.1 3.1 36.8 10.9 49.6 23.2.2 1.2.3 2.5.4 3.7-8 3.7-15.7 8.2-22.8 13.4-6.9-15.9-18-30.1-27.2-40.3zm34.5 55l15.8 15.4-33.9 33-13.3-12.9c8-13.8 18.7-25.9 31.4-35.5zm-38.8 50.6l9.1 8.9-16.1 15.7c1.5-8.5 3.8-16.7 7-24.6zm14.7 224.2c-10.1 18.2-27.6 28.7-45.9 28.7-4.3 0-8.6-.6-12.7-1.7l-13.1-4.7c-5-1.8-10.4-1.8-15.4 0l-13.1 4.7c-22.6 6.2-46.1-4.6-58.6-27-9.5-17.1-15.8-35.8-18.7-55.2l-5-33.6c-3.2-21.5 2-41.9 14.1-56 10.3-11.9 25.3-18.7 41-18.5 5.1 0 19.9 4.1 25.1 7.9 4.6 3.5 10 5.9 15.7 7-.4 6.4-.6 12-.7 16.3-6.9-1.6-10.4-4.7-10.6-4.9l.1.1c-3.1-3.1-8.2-3.2-11.3-.1s-3.2 8.2-.1 11.3l.1.1c1.1 1.1 10.9 10.3 29.7 10.3 18.8 0 28.6-9.3 29.7-10.3 3.1-3.1 3.1-8.2 0-11.3s-8.2-3.1-11.3 0c0 0-3.5 3.1-10.2 4.7.1-4.8.4-10.5.8-16.6 5-1.2 9.8-3.5 13.9-6.6 5.1-3.8 20-7.9 25.1-7.9 15.7-.2 30.7 6.6 41 18.5 12.2 14.1 17.3 34.5 14.1 56l-5 33.6c-2.9 19.3-9.2 38.1-18.7 55.2zm213.3-20.2C394.1 462.6 349.8 480 304 480c-26.6-.1-52.8-5.9-76.9-17.2.8-1.2 1.5-2.5 2.2-3.8 2-3.5 3.8-7.1 5.5-10.8 21.6 10.2 45.2 15.6 69.1 15.7 39.8 0 78.6-15 109.4-42.3 27-24 44.8-54.8 49.4-85.7h16.9c-2.5 33.5-20.7 67.7-50.9 95.2z"/><circle class="st1" cx="408" cy="360" r="8"/><circle class="st1" cx="368" cy="400" r="8"/><circle class="st1" cx="328" cy="376" r="8"/><circle class="st1" cx="280" cy="376" r="8"/><circle class="st1" cx="304" cy="424" r="8"/></svg>