<svg version="1.1" id="Capa_1" xmlns="http://www.w3.org/2000/svg" x="0" y="0" viewBox="0 0 480 480" xml:space="preserve"><style>.st1{fill:#0e243f}</style><path d="M188.8 293.4l-49.2-19.7-50 19.7-8.8 135.2h117.6zM300 216h142v198H300z" fill="#20bcee"/><path class="st1" d="M251.2 436.2l-6.4-124.9c-.8-20.3-5.3-40.2-13.4-58.9L199.8 179c-6.9-16.2-10.9-33.5-11.8-51h8c4.4 0 8-3.6 8-8V72c0-4.4-3.6-8-8-8h-25.4l-7.1-57c-.5-4-3.9-7-7.9-7h-32c-4 0-7.4 3-7.9 7l-7.1 57H84c-4.4 0-8 3.6-8 8v48c0 4.4 3.6 8 8 8h7.2c-.9 17.6-4.8 34.9-11.8 51.1l-31.6 73.3c-8 18.6-12.6 38.5-13.3 58.8L28 436.3c-.4 8.8 2 17.6 6.9 25 7.6 11.7 20.7 18.8 34.6 18.8h140.1c14 0 27-7.1 34.6-18.8 4.9-7.5 7.4-16.2 7-25.1zM130.7 16h17.9l6 48h-29.9l6-48zM92 80h96v32H92V80zm138.9 372.5c-4.7 7.2-12.6 11.5-21.2 11.5H69.6c-8.6 0-16.6-4.4-21.2-11.5-3-4.6-4.5-10-4.3-15.4L50.5 312c.7-18.3 4.8-36.3 12.1-53.2l31.6-73.3c7.9-18.2 12.4-37.6 13.3-57.4h64.4c.9 19.8 5.4 39.2 13.3 57.4l31.6 73.3c7.3 16.9 11.4 34.9 12.1 53.3l6.4 124.9c.1 5.4-1.4 10.9-4.4 15.5z"/><path class="st1" d="M211.6 431.6l-5.2-104.1c-1.6-36.9-32.8-65.5-69.7-63.9-34.6 1.5-62.4 29.2-63.9 63.9l-5.2 104.1c-.2 4.4 3.2 8.2 7.6 8.4h128.4c4.4 0 8-3.6 8-8v-.4zM84 424l4.8-95.7c1.5-28.1 25.4-49.6 53.5-48.1 26 1.4 46.7 22.1 48.1 48.1l4.8 95.7H84zm336-288v-8c4.4 0 8-3.6 8-8V80c0-4.4-3.6-8-8-8h-24.9L388 15c-.5-4-3.9-7-7.9-7h-24c-4 0-7.4 3-7.9 7L341 72h-25c-4.4 0-8 3.6-8 8v40c0 4.4 3.6 8 8 8v8c-17.7 0-32 14.3-32 32v296c0 8.8 7.2 16 16 16h136c8.8 0 16-7.2 16-16V168c0-17.7-14.3-32-32-32zM363.1 24h9.9l6 48h-21.9l6-48zM324 88h88v24h-88V88zm80 40v8h-72v-8h72zm32 336H300v-40h136v40zm0-56H300V224h136v184zm0-200H300v-40c0-8.8 7.2-16 16-16h104c8.8 0 16 7.2 16 16v40z"/></svg>