<svg xmlns="http://www.w3.org/2000/svg" viewBox="0 0 512 512"><path d="M182.6 296.4l90-89.6h62L215.2 327s-5.4 12.6-6.7 9-32.5-33.3-32.5-33.3l6.6-6.3zM21.8 456l50.3-49 26.8-43.9 50 50-48.4 28.5-21.7 25.6zM398.6 34.4l30.1-20.1 31.8 10L488 52.8l7.7 26-12.6 29.9-7.5 11.9-6.9 21-29.1 25.9-96.3-97.1 38.5-37.7z" fill="#20bcee"/><path d="M16 472h64c2.1 0 4.2-.8 5.7-2.3l23.1-23.1 46.2-23.1 55.3-15.8a9.4 9.4 0 003.5-2L480 139.3c5.1-5.1 6-12.7 2.8-18.8l7.6-7.6c8.7-8.7 13.7-20.7 13.7-33s-5-24.3-13.7-33L465 21.7C456.2 12.8 444.5 8 432 8s-24.2 4.8-33 13.7l-7.6 7.6c-6-3.2-13.7-2.3-18.8 2.8L106.3 298.3c-1 1-1.7 2.2-2 3.5l-15.8 55.3-23.1 46.2-55.1 55.1c-2.3 2.3-3 5.7-1.7 8.7s4.2 4.9 7.4 4.9zm316.2-272h-40.9l18.3-18.3c5.7-5.7 15-5.7 20.7 0 5 4.9 5.7 12.6 1.9 18.3zm-56.9 16h41.4L208 324.7 187.3 304l88-88zm66.4-2.3c11.9-11.9 11.9-31.4 0-43.3-11.9-11.9-31.4-11.9-43.3 0L176 292.7 155.3 272 344 83.3l84.7 84.7L240 356.7 219.3 336l122.4-122.3zM228.7 368L208 388.7 123.3 304l20.7-20.7 84.7 84.7zm225-335L479 58.3c5.7 5.7 9 13.6 9 21.7s-3.3 16-9 21.7l-7 7L403.3 40l7-7c11.6-11.6 31.8-11.6 43.4 0zM384 43.3l84.7 84.7-28.7 28.7L355.3 72 384 43.3zm-268 276l76.8 76.8-38.4 11-49.4-49.4 11-38.4zm-17.8 54.2l40.3 40.3-32.9 16.5-23.8-23.8 16.4-33zM72 419.3L92.7 440l-16 16H35.3L72 419.3zM8 488h496v16H8v-16z" fill="#0e243f"/></svg>