<svg version="1.1" id="Слой_1" xmlns="http://www.w3.org/2000/svg" x="0" y="0" viewBox="0 0 504 504" xml:space="preserve"><style>.st0{fill:#20bcee}.st1{fill:#0e243f}</style><path class="st0" d="M133.4 170.2l115.5 81.6 129.5-130.7-82.6-115-103.3 102.2 13.4 37.4-7.3 6.1-31-17.3z"/><path class="st0" d="M53 212.1l103-11.5 43.5 15.9 9.5 13.4-19.5 7.3-93-7.3-51.9-9.5zm76.2 188.1l35.4-87.8 20.7 27.5 20.6 66.4-10.7 30.2-30 8.9-28.1-12.3z"/><path class="st1" d="M183.4 315.7c-2.6-6.3-8.7-10.3-15.5-10.3-6.8 0-12.9 4.1-15.5 10.4l-21.8 54-6.4 15.4c-6.1 14.7-4.8 31.4 3.3 45 7.4 12.8 20.5 21.2 35.2 22.8a45.33 45.33 0 0010.4 0c14.7-1.5 27.8-10 35.3-22.8 8.1-13.6 9.3-30.3 3.3-45l-28.3-69.5zm10.5 105.9c-4.7 8.2-13.1 13.7-22.5 14.7-2.3.2-4.6.2-6.9 0-9.4-1-17.8-6.5-22.5-14.7-5.4-9.1-6.2-20.2-2.2-30l28.2-69.5 21.8 54.1 6.4 15.4c3.9 9.8 3.1 20.9-2.3 30zM50.4 285.4c-4.6 0-8.4 3.8-8.4 8.4v8.4c0 4.6 3.8 8.4 8.4 8.4 4.6 0 8.4-3.8 8.4-8.4v-8.4c0-4.7-3.8-8.4-8.4-8.4zm0 41.9c-4.6 0-8.4 3.8-8.4 8.4v109.1c0 4.6 3.8 8.4 8.4 8.4 4.6 0 8.4-3.8 8.4-8.4V335.7c0-4.6-3.8-8.4-8.4-8.4z"/><path class="st1" d="M456.7 272.6c-20.6-10.6-38.4-20-44.8-40.6l38.3-38.3c3.1-3.1 4.9-7.4 4.9-11.9s-1.8-8.7-4.9-11.9l-53.4-53.4c-3.9-3.9-9.5-5.6-14.9-4.6L308.5 7.2c-2.8-4.1-7.3-6.7-12.3-7.1-4.9-.4-9.8 1.3-13.3 4.9l-95.3 95.3c-5.3 5.3-6.4 13.5-2.8 20l12.3 22.2-22.2-12.3c-6.6-3.6-14.7-2.5-20 2.8l-24.1 24c-1 1.1-1.9 2.3-2.7 3.6C91.6 162.5 0 170.6 0 201.5V235c.3 6 3.4 11.6 8.4 15v213.2c.1.5.1.9.3 1.4v.1c.1.7.3 1.5.6 2.2 10.1 28.8 102.6 36.7 158.5 36.7 59.2 0 159.5-8.8 159.5-42V316.5l30.5-30.5c20.6 6.4 30 24.2 40.6 44.8 5.5 11.9 12.4 23 20.6 33.3 7.4 8.6 18.1 13.7 29.4 14h1.5c11.2 0 22-4.5 30-12.4l11.6-11.6c8.3-8.3 12.8-19.8 12.4-31.5-.3-11.3-5.4-22-14-29.4-10.2-8.2-21.4-15.1-33.2-20.6zm-18.4-90.8L307.7 312.4 254.3 259l130.6-130.6 53.4 53.4zM21.7 238.9c-1.9-.9-3.6-2.3-4.9-3.9v-13.1c3.3 1.6 6.7 3 10.2 4.2l.4.1c29.7 10.7 82.1 17.2 140.5 17.2 16.7 0 33.4-.6 49.7-1.7l20.3 14.2c0 .2 0 .5-.1.7-23.2 2.4-46.5 3.6-69.9 3.5-65.1.1-125.1-8.6-146.2-21.2zm150.4-29l23.1 16.2c-9.1.3-18.2.5-27.4.5-35 .3-70.1-2.5-104.6-8.4 34.6-5.9 69.6-8.7 104.6-8.4 1.5.1 2.9.1 4.3.1zm-5.4-65.1l47.9 26.6c3.3 1.8 7.4 1.2 10-1.4 2.6-2.7 3.2-6.7 1.4-10l-26.6-47.9 36.5-36.5 53.5 64.2c1.9 2.4 4.9 3.6 7.9 3.1s5.5-2.6 6.5-5.4c1-2.9.4-6.1-1.6-8.4l-54.4-65.3 46.9-46.9L368 121.5 247.4 242.1l-104.7-73.3 24-24zm-38.5 32.6c1.2 2.1 2.9 3.8 4.8 5.2l15.3 10.7c-48.8 1.2-91.8 7-118.3 16-5-1.5-9.5-4.1-13.3-7.6 2.6-6.7 37.8-20.3 111.5-24.3zm39.7 309.4c-88.8 0-140-16.4-142.7-25.3V259c28.9 11.1 82.3 18 142.7 18 25.6 0 51.1-1.3 76.6-4.1l51.4 51.4c3.1 3.2 7.4 4.9 11.9 4.9.9 0 1.9-.1 2.8-.3v132.6c-2.6 8.9-53.8 25.3-142.7 25.3zm311.8-144.6l-11.6 11.6c-5 5-11.9 7.7-19 7.5-6.7-.2-12.9-3.2-17.3-8.2-7.3-9.3-13.4-19.3-18.3-30-9.7-18.9-20.5-39.9-42.4-50.2l27.8-27.8c10.3 21.9 31.3 32.7 50.2 42.4 10.7 4.9 20.7 11.1 30 18.3 5 4.4 8 10.6 8.2 17.3.1 7.2-2.6 14.1-7.6 19.1z"/><path class="st1" d="M289.9 247.1L284 253c-2.2 2.1-3 5.2-2.3 8.2.8 2.9 3.1 5.2 6 6 2.9.8 6-.1 8.2-2.3l5.9-5.9c3.2-3.3 3.2-8.5-.1-11.8-3.2-3.3-8.5-3.3-11.8-.1zm89-89l-65.3 65.3c-2.2 2.1-3 5.2-2.3 8.2.8 2.9 3.1 5.2 6 6 2.9.8 6-.1 8.2-2.3l65.3-65.3c2.2-2.1 3-5.2 2.3-8.2s-3.1-5.2-6-6c-2.9-.7-6.1.1-8.2 2.3z"/></svg>