<svg version="1.1" id="Слой_1" xmlns="http://www.w3.org/2000/svg" xmlns:xlink="http://www.w3.org/1999/xlink" x="0" y="0" viewBox="0 0 121 121" xml:space="preserve"><style>.st1{clip-path:url(#SVGID_2_);fill:#0d243f}</style><defs><path id="SVGID_1_" d="M0 0h121v121H0z"/></defs><clipPath id="SVGID_2_"><use xlink:href="#SVGID_1_" overflow="visible"/></clipPath><path d="M1.56 119.51s6.25-10.36 7.1-14.48c.84-4.12 1.84-13.16 2.03-16.06.08-1.28 53.27-3.95 53.27.89 0 7.41-3.92 20.85-5.78 24.57-1.86 3.72-5.92 5.07-5.92 5.07H1.56z" clip-path="url(#SVGID_2_)" fill="#19bbee"/><path class="st1" d="M62.3 45.02c-1.41 0-2.56 1.15-2.56 2.56 0 1.41 1.15 2.56 2.56 2.56 1.41 0 2.56-1.15 2.56-2.56 0-1.41-1.15-2.56-2.56-2.56m0 9.13c-3.62 0-6.57-2.95-6.57-6.57s2.95-6.57 6.57-6.57 6.57 2.95 6.57 6.57-2.94 6.57-6.57 6.57"/><path class="st1" d="M66.08 81.68c0-4.45-3.62-8.06-8.06-8.06H44.57V43.64c0-1.04-.85-1.89-1.89-1.89s-1.89.85-1.89 1.89v16.99h-6.74V3.78h6.74v18.35c0 1.04.85 1.89 1.89 1.89s1.89-.85 1.89-1.89V1.89C44.57.85 43.72 0 42.68 0H32.17c-1.04 0-1.89.85-1.89 1.89v71.73H16.83c-4.45 0-8.06 3.62-8.06 8.06v6.3c0 10.82-2.94 21.38-8.49 30.52-.35.58-.37 1.31-.03 1.91.33.59.97.96 1.65.96h53.54c.65 0 1.27-.35 1.61-.91 5.91-9.74 9.04-20.97 9.04-32.48v-6.3zM34.06 64.41h6.74v9.21h-6.74v-9.21zm28.19 25.98c-.38 9.49-3.06 18.81-7.75 26.95l-.14.25H40.84l.38-.73c2.02-3.91 3.65-8.08 4.82-12.4.13-.49.07-1-.18-1.43-.25-.44-.66-.75-1.14-.89a1.89 1.89 0 00-2.32 1.33 58.717 58.717 0 01-5.74 13.87l-.15.25H22.99l.38-.73c2.03-3.91 3.65-8.08 4.83-12.4.13-.49.07-1-.18-1.43-.25-.44-.66-.75-1.14-.89a1.89 1.89 0 00-2.32 1.33c-1.33 4.9-3.27 9.56-5.74 13.87l-.15.25H5.15l.38-.73c4.21-8.12 6.63-17.29 6.97-26.51l.02-.48h49.76l-.03.52zm.05-4.32H12.54v-4.39c0-2.36 1.92-4.28 4.28-4.28h41.19c2.36 0 4.28 1.92 4.28 4.28v4.39zm25.99 20.74a8.222 8.222 0 002.42-5.85c0-2.21-.86-4.29-2.42-5.85-1.56-1.56-3.64-2.42-5.85-2.42s-4.29.86-5.85 2.42c-.74.74-.74 1.93 0 2.67s1.93.74 2.67 0c.85-.85 1.98-1.32 3.18-1.32 1.2 0 2.33.47 3.18 1.32s1.32 1.98 1.32 3.18c0 1.2-.47 2.33-1.32 3.18-.36.36-.55.83-.55 1.34 0 .5.2.98.55 1.34.71.7 1.95.7 2.67-.01M80.25 58.8c-4.6 0-8.34 3.74-8.34 8.34 0 1.04.85 1.89 1.89 1.89s1.89-.85 1.89-1.89c0-2.52 2.05-4.56 4.56-4.56 2.52 0 4.56 2.05 4.56 4.56 0 1.04.85 1.89 1.89 1.89s1.89-.85 1.89-1.89c0-4.6-3.74-8.34-8.34-8.34m25.79 62.58c8.46 0 15.33-6.88 15.33-15.33 0-6.1-3.61-11.62-9.19-14.05l-.5-.22.26-.48c1.08-1.98 1.66-4.24 1.66-6.51 0-7.5-6.1-13.6-13.6-13.6-3.53 0-6.87 1.34-9.41 3.78-.75.72-.78 1.92-.06 2.67s1.92.78 2.67.06a9.78 9.78 0 016.79-2.73c5.41 0 9.82 4.4 9.82 9.82 0 2.52-.96 4.92-2.69 6.75-.48.5-.64 1.23-.42 1.89.21.66.77 1.15 1.45 1.27 5.47 1.01 9.44 5.79 9.44 11.36 0 6.37-5.18 11.56-11.56 11.56-4.06 0-7.75-2.07-9.87-5.54a1.91 1.91 0 00-1.62-.91c-.33 0-.67.09-.98.28-.43.26-.73.68-.85 1.17-.12.49-.04 1 .22 1.43 2.82 4.58 7.72 7.33 13.11 7.33"/><path class="st1" d="M42.68 30.4c-.65 0-1.28.27-1.73.73a2.515 2.515 0 000 3.52c.91.93 2.55.93 3.46 0a2.515 2.515 0 000-3.52c-.45-.47-1.08-.73-1.73-.73"/></svg>