<svg version="1.1" id="Capa_1" xmlns="http://www.w3.org/2000/svg" x="0" y="0" viewBox="0 0 480 480" xml:space="preserve"><style>.st0{fill:#0e243f}.st1{fill:#20bcee}</style><path class="st0" d="M468.24 11.65a40.353 40.353 0 00-18.07-10.31A37.14 37.14 0 00440 0H120C89.09.04 64.04 25.09 64 56v344H8c-4.42 0-8 3.58-8 8v16c.04 30.91 25.09 55.96 56 56h320c22.08-.03 39.97-17.92 40-40V80h56c4.42 0 8-3.58 8-8V40a40.137 40.137 0 00-11.76-28.35zM56 464c-22.08-.03-39.97-17.92-40-40v-8h304v8a55.849 55.849 0 0016.8 40H56zM407.39 16.98c-.47.66-.88 1.37-1.31 2.06-.84 1.34-1.59 2.73-2.26 4.16-.37.8-.71 1.6-1.03 2.4-.59 1.55-1.08 3.13-1.47 4.74-.19.75-.42 1.49-.57 2.26-.48 2.44-.72 4.92-.74 7.4v400c0 13.26-10.74 24-24 24-22.08-.03-39.97-17.92-40-40v-16c0-4.42-3.58-8-8-8H80V56c.03-22.08 17.92-39.97 40-40h288c-.22.31-.39.67-.61.98zM464 64h-48V40c0-13.26 10.74-24 24-24 2.03-.02 4.05.25 6.01.8 4.12 1.08 7.89 3.21 10.94 6.19A24.157 24.157 0 01464.01 40v24z"/><ellipse class="st1" cx="239" cy="153" rx="50" ry="46"/><path class="st1" d="M179.14 209.7l18.84 2.09 13.81 20.93 28.21-4.19-55.9 100.05-19.61-30.14-37.26-2.51zM244 230.63l25.56 2.51 16.32-23.44h18.84l47.3 85.81-33.62 3.77-22.48 29.3z"/><path class="st0" d="M240 96c-30.93 0-56 25.07-56 56 .04 30.91 25.09 55.96 56 56 30.93 0 56-25.07 56-56s-25.07-56-56-56zm0 96c-22.09 0-40-17.91-40-40 .03-22.08 17.92-39.97 40-40 22.09 0 40 17.91 40 40s-17.91 40-40 40z"/><path class="st0" d="M359.43 296.49a7.9 7.9 0 00-1.07-3.54l-46.83-81.1a16.59 16.59 0 004.8-4.34 26.81 26.81 0 002.03-21.21c-.78-2.96-1.05-6.02-.8-9.07 1.55-2.44 3.47-4.62 5.7-6.46A27.192 27.192 0 00334.39 152a27.196 27.196 0 00-11.07-18.77 27.036 27.036 0 01-5.7-6.46c-.25-3.05.02-6.11.8-9.07a26.828 26.828 0 00-2.03-21.2A26.928 26.928 0 00296.7 88c-2.99-.2-5.93-.88-8.7-2.02-1.9-2.27-3.42-4.83-4.5-7.59a27.086 27.086 0 00-14.29-16.19 26.18 26.18 0 00-20.58 4.6 27.17 27.17 0 01-8.63 3.6c-3.05-.69-5.96-1.91-8.6-3.6a26.18 26.18 0 00-20.58-4.6 27.046 27.046 0 00-14.29 16.2c-1.08 2.75-2.6 5.32-4.5 7.58a27.33 27.33 0 01-8.74 2c-7.45 0-14.57 3.08-19.66 8.51a26.852 26.852 0 00-2.03 21.21c.78 2.96 1.05 6.03.8 9.07a27.451 27.451 0 01-5.7 6.46A27.212 27.212 0 00145.6 152c.91 7.53 4.93 14.33 11.07 18.77 2.23 1.84 4.16 4.01 5.7 6.46a26.9 26.9 0 01-.8 9.07 26.828 26.828 0 002.03 21.2c1.3 1.76 2.95 3.24 4.84 4.35l-46.85 81.11c-2.22 3.82-.92 8.72 2.91 10.93 1.08.63 2.29.99 3.54 1.07l31.76 1.92 17.48 26.5a8.002 8.002 0 006.71 3.58h.24c2.77-.08 5.3-1.6 6.69-4L240 248l49.07 84.96a8.009 8.009 0 006.69 4h.24c2.69 0 5.2-1.35 6.68-3.59l17.48-26.5 31.76-1.92c4.41-.27 7.78-4.05 7.51-8.46zm-175.88 17.25l-9.84-14.92 13.49-23.4-13.86-8-13.52 23.42-17.88-1.09 42.49-73.6c2.62.17 5.18.79 7.58 1.84 1.9 2.27 3.42 4.83 4.5 7.59a27.086 27.086 0 0014.29 16.19c1.6.53 3.27.8 4.96.8 3.65-.16 7.23-1.11 10.48-2.79l-42.69 73.96zm40.27-90.63c-2.47 1.6-5.19 2.77-8.05 3.47-2.07-2.31-3.7-4.98-4.8-7.88a34.359 34.359 0 00-9.53-13.6 34.457 34.457 0 00-16-4.92c-3.03-.18-6-.87-8.8-2.04-.27-3.01-.01-6.04.74-8.97 1.47-5.52 1.56-11.31.26-16.87a33.794 33.794 0 00-9.96-13.1c-1.98-1.91-6.09-5.82-6.09-7.2s4.11-5.29 6.09-7.2c4.33-3.49 7.74-8 9.9-13.12 1.3-5.55 1.21-11.34-.25-16.86-.75-2.91-1.02-5.92-.8-8.92 2.81-1.21 5.81-1.93 8.87-2.1 5.66-.3 11.15-1.99 16-4.93 4.24-3.68 7.51-8.35 9.52-13.6 1.11-2.87 2.7-5.53 4.7-7.86h.17c2.82.75 5.52 1.92 8 3.46a35.09 35.09 0 0016.19 5.51c5.76-.48 11.32-2.37 16.18-5.51a28.2 28.2 0 018.05-3.47c2.07 2.31 3.7 4.98 4.8 7.88 2.01 5.25 5.29 9.92 9.53 13.6a34.457 34.457 0 0016 4.92c3.03.18 6 .87 8.8 2.04.27 3.01.02 6.04-.74 8.97a34.772 34.772 0 00-.26 16.87c2.19 5.12 5.61 9.62 9.96 13.1 1.98 1.88 6.09 5.78 6.09 7.2s-4.11 5.29-6.09 7.2c-4.33 3.49-7.73 8-9.9 13.12-1.3 5.55-1.21 11.34.25 16.86.75 2.91 1.02 5.92.8 8.92a26.094 26.094 0 01-8.87 2.1c-5.66.3-11.15 1.99-16 4.93a34.195 34.195 0 00-9.52 13.6c-1.11 2.87-2.7 5.53-4.7 7.86-2.89-.67-5.65-1.84-8.14-3.45a35.232 35.232 0 00-16.22-5.53c-5.76.49-11.32 2.38-16.18 5.52zm96.34 67.73l-13.52-23.42-13.86 8 13.5 23.4-9.84 14.92-42.68-73.9a20.604 20.604 0 0015.41 1.96 27.046 27.046 0 0014.29-16.2c1.09-2.76 2.62-5.32 4.54-7.58 2.4-1.04 4.97-1.67 7.58-1.84l42.49 73.6-17.91 1.06z"/></svg>