<svg xmlns="http://www.w3.org/2000/svg" viewBox="0 0 512 512"><path d="M301.6 402.5l78.6 36.3-5.1 42.9-29 26.3-39.1-11.7-13.3-31.3zm2.7-47.5l-27.9-134 14-57.5 41.9-37.4 40.7 7 30.7 24.8 16.7 41.3s2.2 45.2 2.2 46.9-6.4 56.9-6.4 56.9l-15.4 52-12.9 44.1-83.6-44.1z" fill="#20bcee"/><path d="M302 396.2c-3.1-1.4-6.8 0-8.2 3.1-.3.7-.5 1.4-.5 2.1l-4 58.7c-1.8 26.7 18.4 49.8 45.1 51.7 1.1.1 2.2.1 3.4.1 25.5 0 46.6-19.8 48.3-45.2L388 439c.2-2.6-1.3-5.1-3.7-6.1L302 396.2zm71.6 69.7c-1.3 19.8-18.5 34.8-38.4 33.5s-34.8-18.5-33.5-38.4l3.4-49.8 70.1 31.3-1.6 23.4zM272.5 240.3l25.8 121.6c.4 1.9 1.7 3.5 3.4 4.4l83.7 39.4c3.1 1.5 6.8.1 8.3-3 .1-.3.3-.6.4-1l26.1-93.3c0-.1.1-.2.1-.4 10-45.9 11.1-84.9 3.4-116.2-6.6-26.6-19.6-47.1-37.8-59.3-22.3-15-50.7-15.8-70.7-2.2-2 1.2-14.6 9.1-25.8 25.5-11 16-22.8 43.5-17 84 .1.2.1.3.1.5zm26.9-76.9c10.4-15.3 22.2-22.3 22.3-22.3.2-.1.3-.2.5-.3 13.2-9.1 35.9-11.9 56.8 2.1 35.7 24 46.4 83.1 29.2 162.2l-24 86-74.2-34.9-25.1-118.4c-4.3-28.9.6-53.9 14.5-74.4zM215.5 276c-1.7-1.1-3.9-1.2-5.8-.4l-82.3 36.6c-2.4 1.1-3.9 3.5-3.7 6.1l1.8 27.7c1.7 25.5 22.8 45.3 48.3 45.3 1.1 0 2.2 0 3.3-.1 26.7-1.8 47-24.8 45.2-51.6l-3.9-58.7c-.1-2-1.2-3.9-2.9-4.9zM201 366.5c-13.1 15-35.8 16.5-50.8 3.4-7.2-6.3-11.6-15.2-12.2-24.7l-1.5-23.3 70.1-31.2 3.3 49.8c.6 9.5-2.6 18.9-8.9 26zm-109.4-179l25.9 93.3c.9 3.3 4.4 5.3 7.7 4.3.3-.1.7-.2 1-.4l83.8-39.2c1.8-.8 3-2.4 3.5-4.3l26-121.6c0-.1.1-.3.1-.4 6-40.5-5.8-68-16.8-84C211.5 18.8 199 11 196.9 9.7c-20-13.7-48.4-12.9-70.7 2C108.1 23.9 95 44.4 88.3 71c-7.8 31.2-6.7 70.3 3.2 116.2.1.1.1.2.1.3zm41.6-165.3c21-14 43.7-11.1 56.8-2 .1.1.3.2.4.3.1.1 11.9 7 22.3 22.4 13.8 20.5 18.7 45.5 14.4 74.5l-25.4 118.3-74.3 34.8-23.9-86.1c-16.8-79.2-6.1-138.3 29.7-162.2z" fill="#0e243f"/></svg>