<svg version="1.1" id="Слой_1" xmlns="http://www.w3.org/2000/svg" xmlns:xlink="http://www.w3.org/1999/xlink" x="0" y="0" viewBox="0 0 448 480" xml:space="preserve"><style>.st1{clip-path:url(#SVGID_2_);fill:#0e243f}</style><defs><path id="SVGID_1_" d="M0 0h448v480H0z"/></defs><clipPath id="SVGID_2_"><use xlink:href="#SVGID_1_" overflow="visible"/></clipPath><path d="M298.03 384.33l67.07-.95 23.49 15.16s7.77 32.06 7.96 33.46c.19 1.4-33.92 10.68-33.92 10.68L284 441.16l-2.08-17.24 3.03-23.12 13.08-16.47zM83 120l-3.1-58L116 21l50-15h54l84 6 24 12 24 27 10 33v39l-48 5-10-64.64L220 55l-82.45 6.46L126.53 108 123 120H88z" clip-path="url(#SVGID_2_)" fill="#20bcee"/><path class="st1" d="M104 320c-22.09 0-40 17.91-40 40s17.91 40 40 40 40-17.91 40-40c-.03-22.08-17.92-39.97-40-40m0 64c-13.26.05-24.04-10.65-24.1-23.9-.05-13.26 10.65-24.04 23.9-24.1a24.017 24.017 0 0122.73 16H104v16h22.53A24.012 24.012 0 01104 384"/><path class="st1" d="M424 416h-24v-8c0-1.58-.47-3.12-1.34-4.44l-16-24A8.006 8.006 0 00376 376h-8V88c-.06-48.58-39.42-87.94-88-88H160c-48.58.06-87.94 39.42-88 88v30.11L59.06 144H40c-22.08.03-39.97 17.92-40 40v272c0 13.26 10.74 24 24 24s24-10.74 24-24v-8h112v8c0 13.26 10.74 24 24 24s24-10.74 24-24V184c-.03-22.08-17.92-39.97-40-40h-19.06L136 118.11V88c0-13.26 10.74-24 24-24h120c13.26 0 24 10.74 24 24v64h-8c-3.44 0-6.5 2.21-7.58 5.47l-16 48c-1.4 4.19.87 8.72 5.06 10.12.81.27 1.66.41 2.52.41h24v160h-8c-2.67 0-5.17 1.34-6.66 3.56l-16 24A8.066 8.066 0 00272 408v8h-24c-13.26 0-24 10.74-24 24v32c0 4.42 3.58 8 8 8h208c4.42 0 8-3.58 8-8v-32c0-13.26-10.75-24-24-24m-72-184h-32v-96h32v96zm-32 16h32v80h-32v-80zM32 432H16v-64h8c4.42 0 8 3.58 8 8v56zm0 24c0 4.42-3.58 8-8 8s-8-3.58-8-8v-8h16v8zm160-24h-16v-56c0-4.42 3.58-8 8-8h8v64zm0 24c0 4.42-3.58 8-8 8s-8-3.58-8-8v-8h16v8zm0-272v168h-8c-13.26 0-24 10.74-24 24v56h-16v-16h-16v16h-16v-16H96v16H80v-16H64v16H48v-56c0-13.26-10.74-24-24-24h-8V184c0-13.26 10.74-24 24-24h128c13.26 0 24 10.74 24 24M76.94 144l8-16h38.11l8 16H76.94zM280 48H160c-22.08.03-39.97 17.92-40 40v24H88V88c.04-39.75 32.25-71.96 72-72h120c39.75.04 71.96 32.25 72 72v32h-32V88c-.03-22.08-17.92-39.97-40-40m11.1 152l10.66-32H304v32h-12.9zM320 344h32v32h-32v-32zm-32 66.4l12.28-18.4h71.44L384 410.4V432h-24v-16h-16v16h-16v-16h-16v16h-24v-21.6zM432 464H240v-24c0-4.42 3.58-8 8-8h24v8c0 4.42 3.58 8 8 8h112c4.42 0 8-3.58 8-8v-8h24c4.42 0 8 3.58 8 8v24z"/></svg>