<svg version="1.1" id="Слой_1" xmlns="http://www.w3.org/2000/svg" xmlns:xlink="http://www.w3.org/1999/xlink" x="0" y="0" viewBox="0 0 448 480" xml:space="preserve"><style>.st0,.st1{clip-path:url(#SVGID_2_);fill:#0e243f}.st1{fill:#20bcee}</style><defs><path id="SVGID_1_" d="M0 0h448v480H0z"/></defs><clipPath id="SVGID_2_"><use xlink:href="#SVGID_1_" overflow="visible"/></clipPath><path class="st0" d="M176 472V128a24.012 24.012 0 00-16-22.53V80c0-4.42-3.58-8-8-8h-24V8c0-4.42-3.58-8-8-8H56c-4.42 0-8 3.58-8 8v64H24c-4.42 0-8 3.58-8 8v25.47A24.012 24.012 0 000 128v344c0 4.42 3.58 8 8 8h160c4.42 0 8-3.58 8-8M64 16h48v56H64V16zM32 88h112v16H32V88zm128 376H16V128c0-4.42 3.58-8 8-8h128c4.42 0 8 3.58 8 8v336z"/><path class="st1" d="M272 427h94v41h-94z"/><path class="st0" d="M80 32h16v16H80z"/><path class="st1" d="M45 148h84v152H45z"/><path class="st0" d="M136 136H40c-4.42 0-8 3.58-8 8v160c0 4.42 3.58 8 8 8h96c4.42 0 8-3.58 8-8V144c0-4.42-3.58-8-8-8m-8 104v56H48V152h80v88zM48 408H32v32c0 4.42 3.58 8 8 8h32v-16H48v-24zm392-200h-8v-56c0-3.44-2.21-6.5-5.47-7.58A372.5 372.5 0 00320 128c-36.12.28-72 5.81-106.53 16.42A8.001 8.001 0 00208 152v56h-8c-4.42 0-8 3.58-8 8v32c0 4.42 3.58 8 8 8h8v24c-.01 1.23.26 2.45.8 3.55A172.162 172.162 0 01224 352a173.32 173.32 0 01-15.2 68.46 7.935 7.935 0 00-.8 3.54v48c0 4.42 3.58 8 8 8h208c4.42 0 8-3.58 8-8v-48c.01-1.23-.26-2.45-.8-3.55A172.162 172.162 0 01416 352a173.32 173.32 0 0115.2-68.46c.53-1.11.81-2.32.8-3.54v-24h8c4.42 0 8-3.58 8-8v-32c0-4.42-3.58-8-8-8m-216-50.07c13.16-3.72 26.51-6.71 40-8.97l16-2.36c13.27-1.69 26.63-2.56 40-2.6 32.48.37 64.76 5.05 96 13.93V208H224v-50.07zM280 464v-32h16v16h16v-16h16v16h16v-16h16v32h-80zm136-192h-24v16h20c-1.6 4.33-3.44 9.74-5.18 16H384v16h19.08c-.94 5.04-1.72 10.4-2.26 16H376v16h24c0 5.5.31 10.84.8 16H384v16h19.08c1.09 5.78 2.4 11.14 3.72 16H392v16h20c1.7 4.53 3.15 7.89 4 9.79V464h-40v-40c0-4.42-3.58-8-8-8h-96c-4.42 0-8 3.58-8 8v40h-40v-38.21c.87-1.9 2.33-5.26 4-9.79h20v-16h-14.8c1.34-4.86 2.63-10.22 3.72-16H256v-16h-16.8c.5-5.16.8-10.5.8-16h24v-16h-24.8c-.54-5.6-1.32-10.96-2.26-16H256v-16h-22.8c-1.74-6.26-3.56-11.67-5.18-16H248v-16h-24v-16h192v16zm16-32H208v-16h224v16z"/></svg>