<svg xmlns="http://www.w3.org/2000/svg" xmlns:xlink="http://www.w3.org/1999/xlink" viewBox="0 0 496 496"><defs><path id="a" d="M0 0h496v496H0z"/></defs><clipPath id="b"><use xlink:href="#a" overflow="visible"/></clipPath><path d="M327.5 84.75c0 43.49-35.26 78.75-78.75 78.75S170 128.24 170 84.75 205.26 6 248.75 6s78.75 35.26 78.75 78.75" clip-path="url(#b)" fill="#20bcee"/><path d="M344 256c-3.16 0-6.16.65-8.93 1.76C332.31 247.56 323.06 240 312 240c-6.17 0-11.74 2.41-16 6.24-4.26-3.84-9.83-6.24-16-6.24-2.82 0-5.49.58-8 1.47v-68.84c33.26-9.42 57.88-37.79 62.96-71.67l33.82 18.61C348.95 134.14 336 157.56 336 184c0 44.11 35.89 80 80 80s80-35.89 80-80-35.89-80-80-80c-10.97 0-21.43 2.22-30.96 6.24l-49.29-27.11C333.21 36.88 294.88 0 248 0s-85.21 36.88-87.75 83.14l-49.29 27.1C101.43 106.22 90.98 104 80 104c-44.11 0-80 35.89-80 80s35.89 80 80 80 80-35.89 80-80c0-26.45-12.95-49.86-32.79-64.44l33.83-18.61c5.08 33.91 29.68 62.26 62.97 71.69V320.1c0 3.64-.84 7.29-2.45 10.55l-6.71-33.55c-4.81-24.02-26.07-41.45-50.56-41.45-11.18 0-20.28 9.1-20.28 20.28 0 4.02 1.18 7.9 3.41 11.25l8.23 12.35c3.05 4.57 5.02 9.86 5.7 15.31l5.54 44.26c.91 7.38 3.25 14.4 6.7 20.38L200 433.84V448h-16v48h176v-48h-16v-13.34l12.8-17.06c7.22-9.62 11.2-21.55 11.2-33.6V280c0-13.23-10.77-24-24-24m72-8c-14.39 0-27.64-4.83-38.34-12.87 9-11.94 23.16-19.13 38.34-19.13 15.18 0 29.34 7.19 38.34 19.13C443.64 243.17 430.39 248 416 248m-24-72c0-13.23 10.77-24 24-24s24 10.77 24 24-10.77 24-24 24-24-10.77-24-24m24-56c35.29 0 64 28.71 64 64 0 15.14-5.31 29.06-14.14 40.03a63.979 63.979 0 00-23.45-18.22C450.68 198.47 456 187.9 456 176c0-22.06-17.94-40-40-40s-40 17.94-40 40c0 11.9 5.32 22.47 13.59 29.81a64.19 64.19 0 00-23.45 18.22C357.31 213.06 352 199.14 352 184c0-35.29 28.71-64 64-64M80 248c-14.39 0-27.64-4.83-38.34-12.87C50.66 223.19 64.82 216 80 216s29.34 7.19 38.34 19.13C107.64 243.17 94.39 248 80 248m-24-72c0-13.23 10.77-24 24-24s24 10.77 24 24-10.77 24-24 24-24-10.77-24-24m88 8c0 15.14-5.31 29.06-14.14 40.03a63.979 63.979 0 00-23.45-18.22C114.68 198.47 120 187.9 120 176c0-22.06-17.94-40-40-40s-40 17.94-40 40c0 11.9 5.32 22.47 13.59 29.81a64.19 64.19 0 00-23.45 18.22C21.31 213.06 16 199.14 16 184c0-35.29 28.71-64 64-64s64 28.71 64 64m32-96c0-39.7 32.3-72 72-72s72 32.3 72 72c0 16.14-5.48 31.26-14.74 43.46a63.743 63.743 0 00-30.75-29.74C282.72 94.39 288 83.85 288 72c0-22.06-17.94-40-40-40s-40 17.94-40 40c0 11.85 5.28 22.39 13.49 29.72a63.721 63.721 0 00-30.76 29.74C181.47 119.27 176 104.15 176 88m96-16c0 13.23-10.77 24-24 24s-24-10.77-24-24 10.77-24 24-24 24 10.77 24 24m-69.1 72.02C209.6 124.99 227.42 112 248 112c20.56 0 38.38 12.99 45.1 32.01-7.01 5.67-15.09 10.1-23.98 12.82C265.08 149.24 257.18 144 248 144c-9.18 0-17.08 5.24-21.11 12.83-8.91-2.73-16.99-7.14-23.99-12.81M344 480H200v-16h144v16zm8-96c0 8.6-2.84 17.13-8 24l-16 21.34V448H216v-17.84l-28.29-58.14c-2.64-4.6-4.3-9.6-4.96-14.87l-5.54-44.27c-.98-7.9-3.83-15.58-8.26-22.2l-8.24-12.36a4.276 4.276 0 013.56-6.65c16.89 0 31.55 12.02 34.87 28.58l10.29 51.42h19.5l6.83-13.67a40.207 40.207 0 004.22-17.88V168c0-4.42 3.58-8 8-8s8 3.58 8 8v128h16v-32c0-4.42 3.58-8 8-8s8 3.58 8 8v32h16v-32c0-4.42 3.58-8 8-8s8 3.58 8 8v32h16v-16c0-4.42 3.58-8 8-8s8 3.58 8 8v104z" clip-path="url(#b)" fill="#0e243f"/></svg>