<svg version="1.1" id="Слой_1" xmlns="http://www.w3.org/2000/svg" xmlns:xlink="http://www.w3.org/1999/xlink" x="0" y="0" viewBox="0 0 496 496" xml:space="preserve"><style>.st1{clip-path:url(#SVGID_2_);fill:#0e243f}</style><defs><path id="SVGID_1_" d="M0 0h496v496H0z"/></defs><clipPath id="SVGID_2_"><use xlink:href="#SVGID_1_" overflow="visible"/></clipPath><path d="M268.23 184c0 50.91 41.27 92.17 92.17 92.17 50.91 0 92.18-41.27 92.18-92.17s-41.27-92.17-92.18-92.17c-50.9 0-92.17 41.26-92.17 92.17" clip-path="url(#SVGID_2_)" fill="#20bcee"/><path class="st1" d="M392 316.04c59.58-14.45 104-68.09 104-132.04 0-72.29-56.74-131.42-128-135.59V0H84.69L0 84.69V496h360c22.06 0 40-17.94 40-40v-80c0-8.52-4.5-15.98-11.21-20.23 1.98-3.5 3.21-7.47 3.21-11.77v-27.96zM368 352h-16c-4.42 0-8-3.58-8-8v-25.02c5.26.62 10.58 1.02 16 1.02s10.74-.41 16-1.02V344c0 4.42-3.58 8-8 8m112-168c0 66.17-53.83 120-120 120-63.47 0-115.45-49.56-119.59-112h16c4.11 53.61 48.95 96 103.59 96 57.34 0 104-46.66 104-104S417.34 80 360 80c-54.64 0-99.48 42.39-103.59 96h-16C244.55 113.56 296.53 64 360 64c66.17 0 120 53.83 120 120m-175.36 8c3.9 27.1 27.21 48 55.36 48 30.87 0 56-25.12 56-56s-25.13-56-56-56c-28.15 0-51.46 20.9-55.36 48h-32.23c4.06-44.78 41.77-80 87.59-80 48.52 0 88 39.48 88 88s-39.48 88-88 88c-45.82 0-83.54-35.22-87.59-80h32.23zm16.17-16c3.72-18.23 19.87-32 39.19-32 22.06 0 40 17.94 40 40s-17.94 40-40 40c-19.31 0-35.47-13.77-39.19-32H368v-16h-47.19zM80 27.31V80H27.31L80 27.31zM16 96h80V16h256v32.41C283.4 52.42 228.42 107.4 224.41 176h-67.46l-24-48H32v8c0 20.38 10.98 38.2 27.3 48-16.32 9.8-27.3 27.62-27.3 48v8h100.94l24-48h67.46c3.54 60.38 46.54 110.2 103.6 124.04V344c0 4.3 1.22 8.27 3.21 11.77C324.5 360.02 320 367.48 320 376v80c0 9.04 3.13 17.3 8.21 24H16V96zm104 80H88c-19.32 0-35.48-13.77-39.19-32h74.25l16 32H120zm19.06 16l-16 32H48.81c3.72-18.23 19.87-32 39.19-32h51.06zM384 456c0 13.23-10.77 24-24 24s-24-10.77-24-24v-80c0-4.42 3.58-8 8-8h32c4.42 0 8 3.58 8 8v80z"/><path class="st1" d="M104 320c-39.7 0-72 32.3-72 72s32.3 72 72 72 72-32.3 72-72-32.3-72-72-72m0 128c-30.87 0-56-25.13-56-56s25.13-56 56-56 56 25.13 56 56-25.13 56-56 56"/><path class="st1" d="M88 404.69l-10.34-10.35-11.32 11.32L88 427.31l53.66-53.65-11.32-11.32zM32 256h16v16H32zm32 0h160v16H64z"/></svg>