<svg version="1.1" id="Layer_1" xmlns="http://www.w3.org/2000/svg" x="0" y="0" viewBox="0 0 512 512" xml:space="preserve"><style>.st1{fill:#0e243f}</style><path fill="#20bcee" d="M252.3 439.3l3.7-122.8 23.1-29 25.2-5.6 31.2 15.5 12.8 19.1v147.4L335 478.4l-17.5-6.1-3.2 22.1-14 8-15-11.2-3.6-31.2-25.7 2.8z"/><path class="st1" d="M256 0C131.6 0 30.4 101.2 30.4 225.6c0 59.5 23 115.6 64.6 158.1 39.6 40.4 91.9 64 148.1 67.2 1.4 12.7 12.2 22.6 25.2 22.6 2.7 0 5.3-.4 7.8-1.2v14.3c0 14 11.4 25.4 25.4 25.4 13.9 0 25.2-11.2 25.4-25 2.4.8 5.1 1.2 7.8 1.2 14 0 25.4-11.4 25.4-25.4V361.4h26.2c4.9 0 8.8-3.9 8.8-8.8v-25.8c0-51.6-42-93.6-93.6-93.6s-93.6 42-93.6 93.6v25.8c0 4.9 3.9 8.8 8.8 8.8h26.2v71.8c-51.3-3.2-99.1-24.9-135.3-61.9C69.2 332.2 48 280.5 48 225.6c0-114.7 93.3-208 208-208s208 93.3 208 208c0 50.3-18.2 98.8-51.2 136.6-3.2 3.7-2.8 9.2.9 12.4 3.7 3.2 9.2 2.8 12.4-.9 35.8-41 55.5-93.7 55.5-148.2C481.6 101.2 380.4 0 256 0zm86.3 462.8c0 4.3-3.5 7.8-7.8 7.8s-7.8-3.5-7.8-7.8c0-4.9-3.9-8.8-8.8-8.8s-8.8 3.9-8.8 8.8v23.8c0 4.3-3.5 7.8-7.8 7.8s-7.8-3.5-7.8-7.8v-38.5c0-4.9-3.9-8.8-8.8-8.8s-8.8 3.9-8.8 8.8c0 4.3-3.5 7.8-7.8 7.8s-7.8-3.5-7.8-7.8V330.7c0-22.6 18.3-40.9 40.9-40.9s40.9 18.3 40.9 40.9l.2 132.1zm-99.4-132.1v13.1h-17.4v-17c0-41.9 34.1-75.9 75.9-75.9s75.9 34.1 75.9 75.9v17H360v-13.1c0-32.3-26.3-58.5-58.5-58.5s-58.6 26.2-58.6 58.5z"/><path class="st1" d="M278.1 158.2c-3.9-2.9-9.4-2.1-12.3 1.8-7.3 9.8-20.4 15.9-34.1 15.9-14.1 0-27-6-33.7-15.6-2.8-4-8.3-5-12.3-2.2s-5 8.3-2.2 12.3c9.9 14.3 28.4 23.2 48.2 23.2 19.3 0 37.8-8.8 48.3-23 2.9-3.9 2-9.5-1.9-12.4zm135.7 0c-3.9-2.9-9.4-2.1-12.3 1.8-7.3 9.8-20.4 15.9-34.1 15.9-14.1 0-27-6-33.7-15.6-2.8-4-8.3-5-12.3-2.2s-5 8.3-2.2 12.3c9.9 14.3 28.4 23.2 48.2 23.2 19.3 0 37.8-8.8 48.3-23 2.8-3.9 2-9.5-1.9-12.4z"/><circle class="st1" cx="395" cy="392" r="9"/></svg>