<svg version="1.1" id="Capa_1" xmlns="http://www.w3.org/2000/svg" x="0" y="0" viewBox="0 0 512 512" xml:space="preserve"><style>.st1{fill:#0e243f}</style><path fill="#20bcee" d="M298.8 191l69-97.2 76.8 113.3-3.3 60.7-53.6 46.2-69.5-15-29.3-56.3z"/><path class="st1" d="M199.8 440.6c-49.4-15.4-82.6-60.5-82.6-112.2 0-25.3 7.9-49.4 22.9-69.7.3-.5.7-1 .9-1.5 2.5-5 .5-11-4.5-13.4-4.5-2.2-9.8-.8-12.7 3.2-17.5 23.7-26.7 51.9-26.7 81.5 0 29.9 9.5 58.4 27.3 82.3 17.3 23.1 41.9 40.5 69.3 49.1 1 .3 2 .5 3 .5 4.3 0 8.2-2.8 9.6-7.1 1.7-5.4-1.3-11-6.5-12.7z"/><path class="st1" d="M456.7 234.3c0-19.1-5.9-37.3-17.2-52.6L376 87.5c-1.9-2.8-5-4.4-8.3-4.4s-6.5 1.7-8.3 4.4l-26.7 39.7L250 4.4c-1.9-2.8-5-4.4-8.3-4.4s-6.5 1.7-8.3 4.4L91.5 215.1c-23.7 32.2-36.2 70.4-36.2 110.4 0 102.8 83.6 186.5 186.5 186.5s186.5-83.6 186.5-186.5c0-8.2-.5-16.4-1.6-24.5 18.4-16.3 30-40.2 30-66.7zM367.8 111l55.1 81.9c.1.2.2.3.3.5 8.8 11.9 13.4 26 13.4 40.9 0 38-30.9 68.9-68.9 68.9-38 0-68.9-30.9-68.9-68.9 0-14.9 4.6-29 13.4-40.9.1-.2.2-.3.3-.5l28.4-42.2c.1-.1.1-.2.2-.2l26.7-39.5zm40.3 214.5c0 91.8-74.6 166.4-166.4 166.4-91.8 0-166.4-74.6-166.4-166.4 0-35.8 11.2-70 32.4-98.7.1-.2.2-.3.4-.5L241.7 28l78.9 117.1-24.6 36.6c-11.3 15.3-17.2 33.5-17.2 52.6 0 49.1 39.9 89 89 89 14.3 0 27.9-3.4 39.9-9.5.3 3.9.4 7.8.4 11.7z"/><path class="st1" d="M332.4 231.8c0-4.9 1-9.5 2.9-13.9 2.2-5.1 0-11-5.1-13.2-5.1-2.2-11 0-13.2 5.1-3.1 7-4.7 14.4-4.7 22.1 0 18.2 9 35.1 24.2 45.2 1.7 1.1 3.6 1.7 5.6 1.7 3.2 0 6.4-1.6 8.3-4.5 3.1-4.6 1.8-10.8-2.8-13.9-9.5-6.4-15.2-17.1-15.2-28.6zM237 454.5c-2.5-6.5-11.6-8.3-16.4-3.2-5.6 5.5-2.6 15.5 5.1 16.9 7.7 1.7 14.4-6.5 11.3-13.7zm125.5-168.3c6.5 4.5 15.7-.5 15.6-8.3.1-7.9-9.1-12.8-15.6-8.3-5.9 3.6-5.9 13 0 16.6z"/></svg>