<svg version="1.1" id="Слой_1" xmlns="http://www.w3.org/2000/svg" x="0" y="0" viewBox="0 0 480 480" xml:space="preserve"><style>.st0{fill:#20bcee}.st1{fill:#0e243f}</style><path class="st0" d="M406.9 293.8l-34.1 18.8-36.5 5.8-40.2-17-26.5-29.6v-64.5h149.5v45.5z"/><path class="st1" d="M180.7 147.5c-8.4-19.2-12.8-40-12.7-60.9V48c4.4 0 8-3.6 8-8V8c0-4.4-3.6-8-8-8h-64c-4.4 0-8 3.6-8 8v32c0 4.4 3.6 8 8 8v38.5c0 21-4.3 41.7-12.7 60.9l-22.5 51.3C55 230.1 48 264 48 298.2V472c0 4.4 3.6 8 8 8h160c4.4 0 8-3.6 8-8V298.2c0-34.2-7-68.1-20.8-99.4l-22.5-51.3zM112 16h48v16h-48V16zm96 448H64V298.2c0-32 6.6-63.7 19.5-93l22.5-51.3c9.3-21.2 14.1-44.2 14.1-67.3V48h32v38.5c0 23.2 4.8 46.1 14.1 67.3l22.5 51.3c12.9 29.3 19.5 61 19.5 93V464z"/><path class="st1" d="M152.6 202.8l6.7 15.2c3.4 7.9 6.4 16 8.8 24.2 1 3.4 4.1 5.8 7.7 5.8.8 0 1.5-.1 2.3-.3 4.2-1.2 6.7-5.7 5.4-9.9-2.6-8.9-5.8-17.6-9.5-26.1l-6.7-15.2c-1.1-2.7-3.6-4.6-6.4-5-2.9-.4-5.8.9-7.5 3.3-1.8 2.3-2.1 5.4-.8 8zm-10.3-23.6c1.3 2.9 4.2 4.8 7.3 4.8 1.1 0 2.2-.2 3.2-.7 4-1.8 5.9-6.5 4.1-10.5l-5.5-12.5c-1.9-3.9-6.5-5.6-10.4-3.9-4 1.7-5.8 6.3-4.2 10.3l5.5 12.5zM88 280c-4.4 0-8 3.6-8 8v136c0 4.4 3.6 8 8 8h96c4.4 0 8-3.6 8-8V288c0-4.4-3.6-8-8-8H88zm88 136H96V296h80v120z"/><path class="st0" d="M90 291h90v130H90z"/><path class="st1" d="M406.4 460.8c-15.8-11.8-34.7-18.9-54.4-20.5V327.6c45.3-4.2 79.9-42.1 80-87.6 0-.4 0-.8-.1-1.1l-4.2-29.5v-.1l-11.8-82.5c-.6-3.9-3.9-6.9-7.9-6.9H280c-4 0-7.4 2.9-7.9 6.9l-16 112c-.1.4-.1.8-.1 1.1.1 45.5 34.7 83.4 80 87.6v112.7c-19.7 1.6-38.6 8.7-54.4 20.5l-6.4 4.8c-2.7 2.1-3.9 5.7-2.8 8.9s4.1 5.5 7.6 5.5h128c3.4 0 6.5-2.2 7.6-5.5 1.1-3.3 0-6.9-2.8-8.9l-6.4-4.7zM286.9 136H401l9.6 67.2-15.4 1.7c-17.5 2-35.2.5-52.1-4.3l-1-.3c-19.7-5.6-40.2-7.1-60.5-4.6l-3.3.4 8.6-60.1zM272 240.6l4-28 7.6-.9c18.1-2.3 36.5-1 54 4l.9.3c19 5.4 38.8 7.1 58.4 4.9l15.9-1.8 3.1 21.5c0 39.8-32.2 72-72 72s-71.9-32.3-71.9-72zM307.4 464a89.77 89.77 0 0173.2 0h-73.2z"/></svg>